<?xml version="1.0" standalone="no"?>
<!DOCTYPE svg PUBLIC "-//W3C//DTD SVG 20010904//EN"
 "http://www.w3.org/TR/2001/REC-SVG-20010904/DTD/svg10.dtd">
<svg version="1.0" xmlns="http://www.w3.org/2000/svg"
 width="500.000000pt" height="500.000000pt" viewBox="0 0 500.000000 500.000000"
 preserveAspectRatio="xMidYMid meet">

<g transform="translate(0.000000,500.000000) scale(0.100000,-0.100000)"
fill="#000000" stroke="none">
<path d="M0 2500 l0 -2500 2500 0 2500 0 0 2500 0 2500 -2500 0 -2500 0 0
-2500z m2450 1379 c-334 -15 -616 -119 -862 -316 -38 -30 -68 -50 -68 -46 0
12 105 94 188 148 103 66 261 139 367 170 132 38 243 53 395 52 l135 0 -155
-8z m80 -39 l-105 -6 95 -4 95 -3 -115 -7 c-324 -21 -593 -124 -842 -321 -49
-38 -91 -69 -95 -69 -5 0 -16 7 -26 14 -17 13 -17 15 5 38 45 47 155 126 243
176 236 134 453 191 715 189 l135 -1 -105 -6z m-1022 -441 c-3 -20 -5 -19 -9
9 -3 20 -2 29 4 23 5 -5 7 -19 5 -32z m-217 -161 c-31 -47 -103 -189 -98 -194
2 -2 10 8 18 24 26 50 96 157 112 170 12 10 21 11 36 2 12 -6 21 -14 21 -19 0
-4 -22 -46 -48 -92 -123 -214 -183 -436 -183 -674 1 -371 139 -712 391 -965
187 -188 413 -310 690 -372 91 -20 131 -23 305 -23 170 1 214 4 294 23 52 12
96 20 98 18 5 -5 -134 -41 -217 -57 -98 -19 -366 -16 -480 5 -510 92 -957 477
-1114 959 -50 154 -61 229 -61 427 0 257 27 387 120 586 39 85 119 214 131
214 3 0 -4 -15 -15 -32z m1636 -290 c-18 -18 -46 -52 -62 -75 -15 -24 -30 -43
-32 -43 -8 0 31 58 71 106 20 24 42 44 47 44 6 0 -5 -15 -24 -32z m-1257 -208
c-34 -56 -59 -104 -57 -106 2 -2 48 16 103 41 92 42 144 55 144 38 0 -5 -10
-9 -23 -9 -13 -1 -75 -27 -138 -57 -106 -51 -117 -59 -134 -96 -18 -40 -18
-42 1 -64 10 -12 12 -16 4 -9 -24 21 -37 13 -55 -35 -33 -88 -46 -115 -51
-110 -3 3 9 42 27 88 25 66 29 86 20 101 -17 28 -14 36 27 63 27 18 53 51 87
113 69 125 98 168 102 156 2 -6 -24 -57 -57 -114z m1510 115 c0 -2 -20 -37
-44 -77 -58 -95 -141 -267 -133 -275 4 -3 30 15 58 42 61 57 75 50 52 -23 -15
-46 -15 -55 -3 -63 13 -9 13 -10 0 -6 -20 5 -24 42 -9 78 19 46 2 46 -44 1
-52 -51 -70 -54 -66 -9 6 59 189 383 189 332z m-545 -211 c-6 -138 -5 -185 4
-180 13 8 14 -3 2 -23 -5 -8 -14 -10 -21 -6 -18 11 -1 395 17 395 3 0 2 -84
-2 -186z m180 146 c-9 -16 -18 -30 -21 -30 -2 0 2 14 11 30 9 17 18 30 21 30
2 0 -2 -13 -11 -30z m965 1 c0 -5 -7 -15 -17 -22 -18 -16 -95 -170 -88 -177 3
-3 23 3 45 13 25 11 44 15 50 9 5 -5 -1 -10 -16 -10 -35 -3 -101 -49 -109 -76
-4 -13 -15 -41 -25 -63 -10 -22 -21 -49 -25 -60 -4 -11 -9 -15 -12 -9 -2 6 5
35 17 63 30 76 27 87 -15 55 -19 -14 -35 -24 -35 -21 0 3 22 21 48 41 32 23
55 50 67 78 26 61 99 188 108 188 4 0 7 -4 7 -9z m-1057 -176 c-37 -74 -69
-133 -70 -131 -6 6 124 266 132 266 3 0 -25 -61 -62 -135z m97 35 c0 -5 -2
-10 -4 -10 -3 0 -8 5 -11 10 -3 6 -1 10 4 10 6 0 11 -4 11 -10z m-50 -86 c-16
-31 -27 -61 -23 -67 4 -6 1 -7 -6 -2 -16 9 -7 48 21 93 33 54 40 36 8 -24z
m196 45 c3 -6 1 -16 -6 -22 -10 -9 -12 -8 -7 5 4 12 -1 18 -16 21 l-22 4 22 2
c12 0 25 -4 29 -10z m-1188 -9 c-9 -6 -28 -25 -42 -43 -14 -17 -26 -26 -26
-19 0 18 55 72 72 72 8 -1 7 -4 -4 -10z m360 0 c-9 -6 -28 -25 -42 -43 -14
-17 -26 -26 -26 -19 0 18 55 72 72 72 8 -1 7 -4 -4 -10z m1112 -45 c-6 -19 -9
-40 -5 -47 4 -7 0 -5 -8 4 -8 10 -16 16 -19 13 -3 -3 5 15 16 40 23 50 34 44
16 -10z m252 43 c-29 -14 -66 -74 -58 -94 3 -8 2 -12 -4 -9 -14 9 -13 22 7 62
9 19 26 39 37 43 31 13 45 11 18 -2z m366 -28 c-36 -39 -49 -70 -29 -70 5 0
28 21 50 46 23 26 41 43 41 37 0 -5 -21 -29 -46 -53 -41 -41 -46 -44 -58 -28
-7 10 -17 14 -21 10 -5 -4 8 14 29 40 34 42 48 55 67 57 3 1 -11 -17 -33 -39z
m452 35 c0 -3 -9 -24 -21 -47 -15 -30 -18 -43 -9 -48 8 -5 7 -9 -4 -13 -26
-10 -27 8 -3 62 19 43 37 65 37 46z m214 -14 c-17 -10 -36 -32 -43 -49 -7 -17
-19 -33 -26 -36 -18 -6 32 81 53 94 32 18 47 10 16 -9z m-2597 -3 c-2 -7 -8
-24 -12 -38 l-8 -25 24 20 c17 14 15 10 -5 -13 -34 -37 -50 -41 -40 -10 l7 22
-29 -19 c-21 -13 -17 -6 16 27 49 50 54 54 47 36z m946 -3 c-7 -19 25 -57 41
-48 6 4 4 -2 -5 -13 -9 -10 -20 -29 -23 -41 -4 -11 -14 -27 -23 -35 -14 -11
-13 -8 2 15 25 38 10 47 -23 14 -23 -23 -25 -29 -12 -37 10 -7 11 -10 2 -10
-7 0 -16 8 -19 17 -4 11 5 26 31 48 34 29 37 34 26 54 -10 20 -8 51 4 51 3 0
3 -7 -1 -15z m512 5 c3 -5 1 -10 -4 -10 -6 0 -11 5 -11 10 0 6 2 10 4 10 3 0
8 -4 11 -10z m662 -2 c-2 -7 -8 -24 -12 -38 l-8 -25 24 20 c17 14 15 10 -5
-13 -34 -37 -50 -41 -40 -10 l7 22 -29 -19 c-21 -13 -17 -6 16 27 49 50 54 54
47 36z m-2289 -55 c-42 -42 -68 -50 -68 -20 0 7 4 6 10 -3 8 -12 18 -7 53 30
23 25 44 44 47 43 2 -2 -17 -24 -42 -50z m360 0 c-42 -42 -68 -50 -68 -20 0 7
4 6 10 -3 8 -12 18 -7 53 30 23 25 44 44 47 43 2 -2 -17 -24 -42 -50z m1412
48 c0 -5 -7 -12 -16 -15 -14 -5 -15 -4 -4 9 14 17 20 19 20 6z m1040 6 c0 -2
-12 -14 -27 -28 l-28 -24 24 28 c23 25 31 32 31 24z m-2300 -41 c-5 -15 -8
-32 -4 -37 3 -5 0 -9 -5 -9 -6 0 -11 10 -11 21 0 21 -1 21 -27 4 -17 -10 -12
-3 12 18 22 19 41 34 43 32 1 -1 -2 -14 -8 -29z m1034 -8 c-6 -34 -4 -40 7
-33 11 6 11 5 2 -5 -26 -28 -44 20 -23 61 17 30 21 23 14 -23z m900 15 c-8
-35 -24 -54 -24 -29 0 18 17 56 26 56 2 0 1 -12 -2 -27z m-673 -20 c-12 -20
-14 -14 -5 12 4 9 9 14 11 11 3 -2 0 -13 -6 -23z m1129 24 c0 -2 -10 -12 -22
-23 l-23 -19 19 23 c18 21 26 27 26 19z m-1800 -11 c0 -2 -8 -10 -17 -17 -16
-13 -17 -12 -4 4 13 16 21 21 21 13z m640 1 c0 -2 -12 -14 -27 -28 l-28 -24
24 28 c23 25 31 32 31 24z m-1135 -44 c-5 -15 -7 -32 -6 -38 2 -6 -2 -6 -8 0
-8 8 -7 20 1 43 15 38 24 34 13 -5z m1980 -2 c-5 -33 -3 -40 12 -44 15 -4 16
-5 1 -6 -24 -1 -31 15 -24 55 9 47 19 43 11 -5z m-821 -7 c3 -8 2 -12 -4 -9
-6 3 -10 10 -10 16 0 14 7 11 14 -7z m961 6 c-3 -5 -12 -10 -18 -10 -7 0 -6 4
3 10 19 12 23 12 15 0z m90 -10 c-3 -5 -12 -10 -18 -10 -7 0 -6 4 3 10 19 12
23 12 15 0z m-2448 -392 c-2 -13 -4 -5 -4 17 -1 22 1 32 4 23 2 -10 2 -28 0
-40z m150 0 c-2 -13 -4 -5 -4 17 -1 22 1 32 4 23 2 -10 2 -28 0 -40z m173 17
c0 -5 -5 -3 -10 5 -5 8 -10 20 -10 25 0 6 5 3 10 -5 5 -8 10 -19 10 -25z m267
-17 c-2 -13 -4 -5 -4 17 -1 22 1 32 4 23 2 -10 2 -28 0 -40z m41 15 c0 -28 -2
-33 -8 -18 -6 17 -3 55 5 55 2 0 3 -17 3 -37z m339 -15 c-2 -13 -4 -5 -4 17
-1 22 1 32 4 23 2 -10 2 -28 0 -40z m150 0 c-2 -13 -4 -5 -4 17 -1 22 1 32 4
23 2 -10 2 -28 0 -40z m280 0 c-2 -13 -4 -5 -4 17 -1 22 1 32 4 23 2 -10 2
-28 0 -40z m265 25 c-3 -16 -7 -22 -10 -15 -4 13 4 42 11 42 2 0 2 -12 -1 -27z
m285 -25 c-2 -13 -4 -5 -4 17 -1 22 1 32 4 23 2 -10 2 -28 0 -40z m140 0 c-2
-13 -4 -5 -4 17 -1 22 1 32 4 23 2 -10 2 -28 0 -40z m-2327 0 c0 -5 -7 -2 -16
6 -8 9 -20 16 -25 16 -5 0 -9 5 -9 10 0 6 11 3 25 -6 14 -9 25 -21 25 -26z
m133 -9 c-6 -6 -7 3 -4 23 4 28 6 29 9 9 2 -13 0 -27 -5 -32z m1124 19 c-3 -7
-5 -2 -5 12 0 14 2 19 5 13 2 -7 2 -19 0 -25z m700 0 c-3 -7 -5 -2 -5 12 0 14
2 19 5 13 2 -7 2 -19 0 -25z m-1874 2 c3 -11 1 -18 -4 -14 -5 3 -9 12 -9 20 0
20 7 17 13 -6z m446 -25 c0 -5 -4 -3 -9 5 -5 8 -9 22 -9 30 0 16 17 -16 18
-35z m200 0 c0 -5 -4 -3 -9 5 -5 8 -9 22 -9 30 0 16 17 -16 18 -35z m786 15
c3 -5 1 -10 -4 -10 -6 0 -11 5 -11 10 0 6 2 10 4 10 3 0 8 -4 11 -10z"/>
<path d="M1527 2557 c-11 -8 -14 -17 -8 -26 7 -11 11 -9 21 9 14 27 9 34 -13
17z"/>
</g>
</svg>
