<?xml version="1.0" encoding="UTF-8"?>
<svg version="1.1" xmlns="http://www.w3.org/2000/svg" width="1024" height="1024">
<path d="M0 0 C337.92 0 675.84 0 1024 0 C1024 337.92 1024 675.84 1024 1024 C686.08 1024 348.16 1024 0 1024 C0 686.08 0 348.16 0 0 Z " fill="#212931" transform="translate(0,0)"/>
<path d="M0 0 C2.20940795 0.07535387 4.4190638 0.14377535 6.62890625 0.20507812 C12.00807083 0.36927807 17.37786653 0.61919662 22.75 0.9375 C22.80471385 2.53900611 22.84378373 4.14105194 22.8762207 5.74316406 C22.89965042 6.63521545 22.92308014 7.52726685 22.94721985 8.4463501 C22.63655418 12.3704721 20.73267668 14.0447875 17.9375 16.6875 C16.91342048 17.7024626 15.89403181 18.72217577 14.87890625 19.74609375 C14.09410889 20.52702393 14.09410889 20.52702393 13.29345703 21.32373047 C10.76847421 23.9637394 8.58440646 26.84545369 6.375 29.75 C1.93155202 35.52672303 -2.74613157 41.05026096 -7.54541016 46.53344727 C-12.2397485 51.90171139 -16.76874642 57.39007456 -21.25 62.9375 C-26.48574907 69.38295282 -31.78383495 75.76770484 -37.15917969 82.09667969 C-41.59062714 87.32200436 -45.92668741 92.62245979 -50.25 97.9375 C-51.74943092 99.77129879 -53.24943458 101.60462943 -54.75 103.4375 C-56.98998656 106.17439865 -59.22914696 108.91193939 -61.46484375 111.65234375 C-67.015449 118.4515913 -72.62066608 125.20345337 -78.25 131.9375 C-76.56078858 136.02559153 -73.69517134 139.0937818 -70.8125 142.375 C-69.72359025 143.62988903 -68.6350569 144.88510476 -67.546875 146.140625 C-66.99580078 146.77419922 -66.44472656 147.40777344 -65.87695312 148.06054688 C-63.41776829 150.89761365 -60.98707204 153.75834075 -58.5625 156.625 C-58.10746094 157.16253906 -57.65242187 157.70007813 -57.18359375 158.25390625 C-54.35854422 161.60000238 -51.57481936 164.976751 -48.8125 168.375 C-44.85491812 173.23879025 -40.78457554 177.99631231 -36.69165039 182.74584961 C-32.91784633 187.13411946 -29.24472556 191.59554236 -25.59765625 196.08984375 C-22.84052173 199.43418828 -20.01851121 202.71821045 -17.1875 206 C-13.1209741 210.71645918 -9.16613382 215.49591986 -5.3046875 220.3828125 C-2.39800755 223.99682142 0.61008497 227.52146993 3.61572266 231.05322266 C7.25062667 235.3300966 10.80303261 239.66891405 14.33984375 244.02734375 C16.18303549 246.25291562 18.04688746 248.44766159 19.94140625 250.62890625 C20.48933838 251.26062744 21.03727051 251.89234863 21.60180664 252.54321289 C22.68158286 253.7842118 23.76527163 255.02181975 24.85327148 256.25561523 C27.0686449 258.80193387 28.67137957 260.70163872 29.75 263.9375 C22.22525942 264.21746377 14.70186958 264.40946175 7.1730957 264.54174805 C4.6149681 264.59691288 2.05718495 264.67186831 -0.49975586 264.76733398 C-22.93139488 265.58358549 -22.93139488 265.58358549 -27.73925781 261.734375 C-30.04702552 258.91300914 -31.63266786 256.19455604 -33.25 252.9375 C-34.39326073 251.45903415 -35.57647558 250.01025049 -36.8046875 248.6015625 C-37.35084717 247.93672852 -37.89700684 247.27189453 -38.4597168 246.58691406 C-44.9910846 238.64700762 -51.5871779 230.76722952 -58.25 222.9375 C-64.21115807 215.92609237 -70.1276146 208.8878592 -75.9375 201.75 C-78.97498174 198.05576545 -82.07072046 194.41274894 -85.16845703 190.76904297 C-88.02846938 187.3989901 -90.84255733 183.99723692 -93.625 180.5625 C-97.2472518 176.10933739 -100.97867568 171.7640049 -104.75 167.4375 C-109.25577801 162.26842172 -113.67084145 157.04516497 -117.9765625 151.70703125 C-119.69519587 149.61336964 -121.43510436 147.55591261 -123.2109375 145.51171875 C-123.71544434 144.92793457 -124.21995117 144.34415039 -124.73974609 143.74267578 C-125.72386835 142.60710116 -126.71353162 141.47629766 -127.70947266 140.35107422 C-132.40038555 134.92207471 -132.40038555 134.92207471 -132.25 131.9375 C-130.79529473 129.63882015 -129.35988504 127.69556647 -127.625 125.625 C-127.13080566 125.01615967 -126.63661133 124.40731934 -126.12744141 123.7800293 C-121.31702951 117.90022006 -116.31566375 112.18051162 -111.3125 106.46484375 C-107.94743234 102.60972775 -104.71310064 98.6556865 -101.4921875 94.6796875 C-98.94746317 91.56749852 -96.35381775 88.50023503 -93.75 85.4375 C-90.37711398 81.46850848 -87.03823226 77.4773282 -83.75 73.4375 C-80.4617626 69.39766548 -77.12268539 65.40666723 -73.75 61.4375 C-68.84452058 55.66204986 -64.03103401 49.81652917 -59.25 43.9375 C-57.85489966 42.22856802 -56.45904792 40.52024921 -55.0625 38.8125 C-54.32257813 37.90757812 -53.58265625 37.00265625 -52.8203125 36.0703125 C-50.88342678 33.70610427 -48.93892415 31.34828992 -46.9921875 28.9921875 C-46.40590576 28.2820752 -45.81962402 27.57196289 -45.21557617 26.84033203 C-44.08651644 25.47330626 -42.95657371 24.10700893 -41.82543945 22.74169922 C-41.00499146 21.74807373 -41.00499146 21.74807373 -40.16796875 20.734375 C-39.5558252 20.02611572 -38.94368164 19.31785645 -38.31298828 18.58813477 C-36.64241956 16.44170109 -35.33640386 14.4191127 -33.97998047 12.08178711 C-25.36018744 -1.82707593 -15.25250632 -0.90693661 0 0 Z " fill="#FCFCFC" transform="translate(641.25,324.0625)"/>
<path d="M0 0 C18.35125887 -0.07035527 36.70248232 -0.12311722 55.05384731 -0.15543652 C63.57639028 -0.17084766 72.09884902 -0.19182588 80.62133789 -0.22631836 C88.05715356 -0.25639825 95.49290817 -0.2756167 102.928783 -0.28226548 C106.85912301 -0.28614657 110.78928849 -0.2951446 114.71957207 -0.31719017 C146.14986451 -0.486517 146.14986451 -0.486517 160 3 C160.68381178 3.16654398 161.36762356 3.33308796 162.07215691 3.50467873 C179.8603494 7.8595422 196.21538467 15.88327407 210 28 C210.78632812 28.67804688 211.57265625 29.35609375 212.3828125 30.0546875 C214.26757732 31.68990158 216.13965761 33.33712412 218 35 C217.52879861 39.6951853 215.73535286 41.77980492 212.5 45.125 C211.58237432 46.09421843 210.66706112 47.06563073 209.75390625 48.0390625 C209.29129395 48.53051758 208.82868164 49.02197266 208.35205078 49.52832031 C203.79790117 54.48541924 199.69341079 59.86819025 195.5078125 65.13671875 C194.29738281 66.64685547 194.29738281 66.64685547 193.0625 68.1875 C192.33160156 69.10917969 191.60070312 70.03085937 190.84765625 70.98046875 C190.23792969 71.64691406 189.62820313 72.31335938 189 73 C188.34 73 187.68 73 187 73 C185.5546875 71.4609375 185.5546875 71.4609375 183.875 69.375 C178.28872 62.88990916 172.00511566 58.79871023 164.5 54.8125 C163.9026001 54.47927734 163.3052002 54.14605469 162.68969727 53.80273438 C149.50749954 47.09780689 134.33474642 47.65538651 119.97031403 47.92552757 C115.5547797 48.00122748 111.1394678 48.0211609 106.72340012 48.04526997 C98.54068588 48.09082067 90.35959105 48.15973376 82.17822266 48.31860352 C76.44677486 48.42776061 70.71833225 48.46792114 64.98589325 48.46364784 C62.81848161 48.47475366 60.65103567 48.51095064 58.4845047 48.57372093 C40.77175279 49.07040971 40.77175279 49.07040971 35.12805176 44.03823853 C32.47595848 41.19937665 30.28812976 38.15400916 28.21790314 34.87327003 C26.13305007 31.6665349 23.70094163 28.73297703 21.3125 25.75 C20.4061395 24.58703702 19.50100229 23.42311854 18.59765625 22.2578125 C14.95714044 17.63523547 10.98303215 13.32678352 7 9 C5.64011948 7.48427365 4.28550461 5.9637978 2.9375 4.4375 C2.36902344 3.79683594 1.80054688 3.15617187 1.21484375 2.49609375 C0 1 0 1 0 0 Z " fill="#10CEDE" transform="translate(355,325)"/>
<path d="M0 0 C3.3739871 2.55657785 6.05441276 5.07988274 8.625 8.4375 C11.87476369 12.5981823 15.20837884 16.66419992 18.625 20.6875 C19.09405762 21.24356934 19.56311523 21.79963867 20.04638672 22.37255859 C22.01593117 24.70083405 24.00135972 27.0014726 26.0703125 29.2421875 C27.75 31.0625 27.75 31.0625 30 34 C29.44483589 39.66267392 24.60027119 42.82573792 20.50683594 46.24853516 C-1.45690179 64.11124145 -27.29909346 72.23099908 -55.3515625 72.09765625 C-56.49160736 72.0962413 -57.63165222 72.09482635 -58.8062439 72.09336853 C-62.41252373 72.08781479 -66.01873924 72.07527107 -69.625 72.0625 C-72.08463451 72.05747902 -74.54427001 72.05291716 -77.00390625 72.04882812 C-83.00264831 72.03871561 -89.00125296 72.01913137 -95 72 C-95 56.82 -95 41.64 -95 26 C-91.3596875 25.98582031 -87.719375 25.97164062 -83.96875 25.95703125 C-80.39069765 25.9263008 -76.81282461 25.88724056 -73.23486328 25.84741211 C-70.77366611 25.82440576 -68.31237291 25.80987778 -65.85107422 25.80444336 C-38.74693087 25.73285582 -20.55193389 20.44037499 -1.15625 1.16796875 C-0.58390625 0.58982422 -0.58390625 0.58982422 0 0 Z " fill="#0D81D6" transform="translate(543,516)"/>
<path d="M0 0 C14.85 0 29.7 0 45 0 C45 30.03 45 60.06 45 91 C30.15 91 15.3 91 0 91 C0 60.97 0 30.94 0 0 Z " fill="#0C67D1" transform="translate(388,497)"/>
<path d="M0 0 C166.32 0 332.64 0 504 0 C504 1.65 504 3.3 504 5 C337.68 5 171.36 5 0 5 C0 3.35 0 1.7 0 0 Z " fill="#068ED8" transform="translate(261,712)"/>
<path d="M0 0 C4.08375 -0.0825 8.1675 -0.165 12.375 -0.25 C14.27451416 -0.30462402 14.27451416 -0.30462402 16.21240234 -0.36035156 C24.91532541 -0.44470067 31.36656715 1.21994029 38.8125 5.6875 C44.12943298 11.30825772 46.32802563 16.24947903 46.5625 24.0625 C46.24003613 31.94589299 44.49992615 36.90467472 38.75 42.3125 C31.19083645 48.84256951 22.41750936 48.37991416 13 48.1875 C8.71 48.125625 4.42 48.06375 0 48 C0 32.16 0 16.32 0 0 Z " fill="#0766D8" transform="translate(263,650)"/>
<path d="M0 0 C1.32 0.33 2.64 0.66 4 1 C2.48133302 4.39743025 0.49720998 7.01618284 -1.875 9.875 C-2.6690625 10.83277344 -3.463125 11.79054688 -4.28125 12.77734375 C-7.79382983 16.95767964 -11.35126059 21.10016065 -14.92529297 25.22802734 C-16.29268916 26.81116122 -17.64903342 28.40284178 -19 30 C-19.61617187 30.72703125 -20.23234375 31.4540625 -20.8671875 32.203125 C-22.73121949 35.1598654 -21.67379622 37.68716859 -21 41 C-20.69707031 42.07894531 -20.39414062 43.15789062 -20.08203125 44.26953125 C-19.97985571 48.91608578 -21.1335638 50.17302596 -24.14257812 53.5078125 C-25.03106445 54.43207031 -25.03106445 54.43207031 -25.9375 55.375 C-26.7737793 56.28765625 -26.7737793 56.28765625 -27.62695312 57.21875 C-28.47483398 58.14300781 -28.47483398 58.14300781 -29.33984375 59.0859375 C-29.9227417 59.72345947 -30.50563965 60.36098145 -31.10620117 61.01782227 C-33 63 -33 63 -35.21606445 64.99584961 C-39.70265579 69.30267934 -41.50653545 72.21546356 -41.67578125 78.51953125 C-41.59046219 80.95203916 -41.46784013 83.38345832 -41.3125 85.8125 C-41.22520417 88.38895089 -41.14974095 90.96582908 -41.0859375 93.54296875 C-41.05467773 94.80415527 -41.02341797 96.0653418 -40.99121094 97.36474609 C-41.0037226 102.53970681 -41.592167 107.52666019 -42.4375 112.625 C-42.64016479 113.84860229 -42.64016479 113.84860229 -42.84692383 115.09692383 C-43.38792363 118.15266278 -44.01766278 121.05298835 -45 124 C-45.66 124 -46.32 124 -47 124 C-48.55859375 122.26953125 -48.55859375 122.26953125 -50.4375 119.8125 C-53.68484789 115.64742336 -57.012034 111.58029488 -60.4375 107.5625 C-61.36861388 106.46104256 -62.29960357 105.35948013 -63.23046875 104.2578125 C-65.04807102 102.11095763 -66.88567915 99.98387399 -68.73828125 97.8671875 C-69.56714844 96.90039062 -70.39601563 95.93359375 -71.25 94.9375 C-72.37148438 93.65166016 -72.37148438 93.65166016 -73.515625 92.33984375 C-75 90 -75 90 -75.0078125 88.02734375 C-73.59113915 85.17752411 -71.71203601 83.02805408 -69.625 80.625 C-68.71438723 79.56139896 -67.80560387 78.49622955 -66.8984375 77.4296875 C-66.42374023 76.87249023 -65.94904297 76.31529297 -65.45996094 75.74121094 C-62.99061276 72.79616224 -60.61876159 69.77613884 -58.25 66.75 C-57.78682373 66.16025391 -57.32364746 65.57050781 -56.84643555 64.96289062 C-54.31461599 61.7260938 -51.85234824 58.45055743 -49.4375 55.125 C-48.2309375 53.578125 -48.2309375 53.578125 -47 52 C-46.34 52 -45.68 52 -45 52 C-44.01 56.62 -43.02 61.24 -42 66 C-40.08122455 63.93942825 -38.16494202 61.87662937 -36.25 59.8125 C-35.71117187 59.23435547 -35.17234375 58.65621094 -34.6171875 58.06054688 C-28.54123968 52.15663 -28.54123968 52.15663 -25.625 44.625 C-25.83483924 40.97411386 -25.83483924 40.97411386 -27.32421875 37.69921875 C-28 34 -28 34 -26.10546875 30.60546875 C-25.15666323 29.44620822 -24.18231954 28.30752276 -23.1875 27.1875 C-22.42505981 26.27629395 -22.42505981 26.27629395 -21.6472168 25.34667969 C-20.12341794 23.54051935 -18.56983914 21.76619653 -17 20 C-16.18789063 19.08347656 -15.37578125 18.16695313 -14.5390625 17.22265625 C-13.08406757 15.60684609 -11.62083419 13.99840647 -10.1484375 12.3984375 C-6.58051016 8.41533316 -3.2900334 4.21339427 0 0 Z " fill="#0FCEDB" transform="translate(652,369)"/>
<path d="M0 0 C2.97 0 5.94 0 9 0 C12.09447656 7.43632288 14.73987212 14.97375834 17.25 22.625 C17.61351562 23.72457031 17.97703125 24.82414063 18.3515625 25.95703125 C19.23715622 28.63711752 20.11991207 31.31810177 21 34 C24.32566526 27.01175204 26.81335484 19.8585137 29.1875 12.5 C29.88665911 10.34288479 30.58834008 8.18658476 31.29296875 6.03125 C31.5974292 5.08830078 31.90188965 4.14535156 32.21557617 3.17382812 C33 1 33 1 34 0 C36.67058851 -0.14115161 39.32432238 -0.04247107 42 0 C42.49197876 1.49164673 42.49197876 1.49164673 42.99389648 3.01342773 C44.20783378 6.69135211 45.42569899 10.3679656 46.64477539 14.04418945 C47.1725472 15.63758243 47.69924306 17.2313322 48.22485352 18.82543945 C48.97912709 21.11243105 49.73721989 23.39812517 50.49609375 25.68359375 C50.73154404 26.40026718 50.96699432 27.11694061 51.20957947 27.85533142 C52.13258873 31.19092096 52.13258873 31.19092096 54 34 C59.445 17.17 59.445 17.17 65 0 C67.97 0 70.94 0 74 0 C71.07394398 9.91778987 67.93313616 19.76718708 64.8125 29.625 C64.24797981 31.41013504 63.68352612 33.19529112 63.11914062 34.98046875 C61.74686079 39.3205555 60.37367962 43.66035611 59 48 C55.7 48 52.4 48 49 48 C45.37 37.44 41.74 26.88 38 16 C35.33821779 18.66178221 34.7898145 21.17979678 33.6171875 24.7578125 C33.39805695 25.42086395 33.17892639 26.08391541 32.95315552 26.76705933 C32.25478282 28.88456174 31.56480758 31.00469376 30.875 33.125 C30.40289435 34.561379 29.93024467 35.99757932 29.45703125 37.43359375 C28.29836825 40.95367782 27.14722068 44.47616788 26 48 C22.7 48 19.4 48 16 48 C13.87999294 41.80767802 11.76212618 35.61462979 9.64624023 29.42089844 C8.92612559 27.31392638 8.20542631 25.20715405 7.48413086 23.10058594 C6.44751713 20.0727892 5.41300741 17.04428065 4.37890625 14.015625 C4.05596085 13.07382385 3.73301544 12.13202271 3.40028381 11.16168213 C3.10004807 10.28107117 2.79981232 9.40046021 2.49047852 8.49316406 C2.22622574 7.72039124 1.96197296 6.94761841 1.68971252 6.15142822 C1.0405576 4.1265118 0.51573412 2.06293648 0 0 Z " fill="#11C0DF" transform="translate(395,650)"/>
<path d="M0 0 C6.21428571 0.21428571 6.21428571 0.21428571 9 3 C9.55239643 9.96019496 9.55239643 9.96019496 7.9375 13 C4.86784865 14.58433618 2.38318857 14.36248449 -1 14 C-2.9375 12.625 -2.9375 12.625 -4 11 C-4 10.34 -4 9.68 -4 9 C-17.86 9 -31.72 9 -46 9 C-46 56.85 -46 104.7 -46 154 C-28.84 153.67 -11.68 153.34 6 153 C6.99 151.68 7.98 150.36 9 149 C12.4437054 148.11824479 15.86386771 148.39642972 19 150.0625 C20.60856522 153.17909511 20.42213381 155.56262469 20 159 C18.375 161.4375 18.375 161.4375 16 163 C12.66840785 163.47594174 10.87797838 163.64385081 8.125 161.625 C7 160 7 160 7 158 C-11.81 158 -30.62 158 -50 158 C-50 107.51 -50 57.02 -50 5 C-27.23 4.505 -27.23 4.505 -4 4 C-2.68 2.68 -1.36 1.36 0 0 Z " fill="#0D4FAE" transform="translate(417,451)"/>
<path d="M0 0 C74.58 0 149.16 0 226 0 C226 1.65 226 3.3 226 5 C196.16452167 5.02281206 166.32904363 5.04050941 136.49355846 5.05106533 C132.97129156 5.05231604 129.44902468 5.05361036 125.92675781 5.05493164 C125.2255372 5.05519395 124.52431659 5.05545626 123.80184688 5.05572652 C112.44744386 5.06007795 101.09304591 5.06796262 89.7386459 5.0771528 C78.08818928 5.08650396 66.43773562 5.09198387 54.78727543 5.09408849 C48.24331931 5.09539348 41.69937466 5.09846602 35.15542221 5.10573006 C28.99793896 5.11250982 22.84047194 5.11461295 16.68298531 5.11310768 C14.4214742 5.11338313 12.15996255 5.11537665 9.89845467 5.11920547 C6.81329505 5.12417321 3.7281969 5.12298684 0.64303589 5.12025452 C-0.25385991 5.12316736 -1.15075571 5.1260802 -2.07483017 5.12908131 C-6.49906295 5.11847518 -10.64433619 4.89479246 -15 4 C-15 3.67 -15 3.34 -15 3 C-6.585 2.505 -6.585 2.505 2 2 C1.34 1.34 0.68 0.68 0 0 Z " fill="#0AD5E0" transform="translate(539,712)"/>
<path d="M0 0 C2.97 0 5.94 0 9 0 C9.33 7.59 9.66 15.18 10 23 C13.2175 19.535 13.2175 19.535 16.5 16 C17.79438781 14.62258329 19.08971656 13.24604899 20.38671875 11.87109375 C22.44020297 9.68778246 24.43649706 7.49372038 26.39453125 5.22265625 C30.83444904 0.22209711 30.83444904 0.22209711 34.48046875 -0.47265625 C36.72252494 -0.49698864 38.7913345 -0.36811092 41 0 C39.50862993 3.51423905 37.49442087 5.68476369 34.75 8.3125 C30.92329718 12.04647173 27.41294319 15.8869659 24 20 C25.28739808 23.59215465 26.79070309 26.28828299 29.1875 29.25 C30.11175781 30.41015625 30.11175781 30.41015625 31.0546875 31.59375 C31.69664062 32.3878125 32.33859375 33.181875 33 34 C34.27640443 35.57884564 35.54743585 37.16205337 36.8125 38.75 C37.37582031 39.44609375 37.93914063 40.1421875 38.51953125 40.859375 C40.10498649 43.15180105 41.06215634 45.38318744 42 48 C33.56703203 49.17288039 33.56703203 49.17288039 30.08203125 46.56445312 C28.38408195 44.53965886 26.92996857 42.47183289 25.5 40.25 C24.98953125 39.52039063 24.4790625 38.79078125 23.953125 38.0390625 C21.70819688 34.78982443 19.71433064 31.56129426 18 28 C13.53063017 30.45216121 13.53063017 30.45216121 10 34 C9.41781668 37.4223884 9.41781668 37.4223884 9.3125 41.1875 C9.24675781 42.45980469 9.18101562 43.73210938 9.11328125 45.04296875 C9.07589844 46.01878906 9.03851562 46.99460937 9 48 C6.03 48 3.06 48 0 48 C0 32.16 0 16.32 0 0 Z " fill="#F0F1F2" transform="translate(571,650)"/>
<path d="M0 0 C5.32798273 3.1762974 8.42293499 6.75705588 10.625 12.5625 C11.25 15.9375 11.25 15.9375 11.25 20.9375 C1.68 20.9375 -7.89 20.9375 -17.75 20.9375 C-15.24943407 25.91371743 -15.24943407 25.91371743 -11.75 27.9375 C-6.13784265 28.59434458 -0.98545369 28.14190155 4.25 25.9375 C5.75 27.25 5.75 27.25 7.25 28.9375 C7.25 29.9275 7.25 30.9175 7.25 31.9375 C1.47397237 36.44561912 -3.92117197 36.65610031 -11.140625 36.44921875 C-16.38707164 35.70540435 -19.3210872 33.90410864 -22.75 29.9375 C-23.19988281 29.41929687 -23.64976562 28.90109375 -24.11328125 28.3671875 C-27.59475712 23.41415997 -27.69758857 17.76558898 -26.75 11.9375 C-24.72455641 6.42119971 -21.09026755 2.62847961 -15.9921875 -0.21875 C-10.54862328 -2.26719925 -5.47786711 -1.55206235 0 0 Z " fill="#0975D3" transform="translate(341.75,662.0625)"/>
<path d="M0 0 C3.88089858 3.68685365 6.24569965 5.9796923 6.8203125 11.39208984 C6.89370009 15.01916931 6.84821599 18.62356346 6.75 22.25 C6.73195313 23.51070312 6.71390625 24.77140625 6.6953125 26.0703125 C6.64830729 29.17265614 6.58260676 32.2734338 6.5 35.375 C3.86 35.375 1.22 35.375 -1.5 35.375 C-1.5 34.385 -1.5 33.395 -1.5 32.375 C-1.9846875 32.66375 -2.469375 32.9525 -2.96875 33.25 C-8.13730729 36.11258558 -11.59449593 37.12490528 -17.5 36.375 C-20.87986754 35.07351859 -23.64999837 33.44674119 -25.9375 30.5625 C-26.78497616 27.26675939 -26.90998755 24.77203973 -26.5 21.375 C-24.71523759 18.40260759 -22.64791945 15.94895973 -19.5 14.375 C-16.61629667 14.30305131 -13.75760336 14.28208292 -10.875 14.3125 C-10.07320312 14.31701172 -9.27140625 14.32152344 -8.4453125 14.32617188 C-6.46350994 14.33796832 -4.48174567 14.35590395 -2.5 14.375 C-3.76946514 9.55057816 -3.76946514 9.55057816 -7.5 6.375 C-12.90540418 5.95104673 -17.34776142 6.92875759 -22.5 8.375 C-24.5 5.375 -24.5 5.375 -24.5 1.375 C-16.62305751 -1.96673318 -8.01035445 -3.71909314 0 0 Z " fill="#F2F3F3" transform="translate(711.5,662.625)"/>
<path d="M0 0 C2.77526162 1.92544918 4.06688232 3.613624 5.3125 6.75 C5.53955078 9.77441406 5.53955078 9.77441406 5.5078125 13.265625 C5.50136719 14.51601563 5.49492188 15.76640625 5.48828125 17.0546875 C5.47152344 18.35664062 5.45476563 19.65859375 5.4375 21 C5.42847656 22.31742188 5.41945313 23.63484375 5.41015625 24.9921875 C5.38658533 28.24497462 5.35368022 31.49739589 5.3125 34.75 C2.6725 34.75 0.0325 34.75 -2.6875 34.75 C-3.0175 34.09 -3.3475 33.43 -3.6875 32.75 C-4.6775 33.245 -5.6675 33.74 -6.6875 34.25 C-10.96228696 36.05491005 -14.05652849 36.26455239 -18.6875 35.75 C-23.05609523 33.52448922 -25.74371805 31.28549123 -27.6875 26.75 C-28.2500426 22.89256502 -28.0439248 21.31009611 -25.9375 18 C-22.58671751 14.64921751 -20.28859808 13.63854105 -15.578125 13.5546875 C-14.03112896 13.56790969 -12.48419315 13.59165504 -10.9375 13.625 C-9.74833984 13.63853516 -9.74833984 13.63853516 -8.53515625 13.65234375 C-6.58580719 13.67582988 -4.63661425 13.71169863 -2.6875 13.75 C-3.76051036 9.60822247 -3.76051036 9.60822247 -6.3125 6.375 C-12.15868108 4.83653129 -17.15148282 5.53559313 -22.6875 7.75 C-24.25 5.9375 -24.25 5.9375 -25.6875 3.75 C-24.6875 0.75 -24.6875 0.75 -21.9375 -0.9375 C-15.00995896 -3.60853129 -6.46895239 -3.82470907 0 0 Z " fill="#F3F4F4" transform="translate(643.6875,663.25)"/>
<path d="M0 0 C3.14431349 1.57215674 4.75985681 2.49837975 7.171875 4.79296875 C7.74953613 5.33711426 8.32719727 5.88125977 8.92236328 6.44189453 C9.5254834 7.01794434 10.12860352 7.59399414 10.75 8.1875 C12.01223105 9.37714061 13.27524532 10.5659508 14.5390625 11.75390625 C15.14137695 12.32125488 15.74369141 12.88860352 16.36425781 13.47314453 C18.8328184 15.77738004 21.38029065 17.98300918 23.9375 20.1875 C27.21597735 23.06858616 30.41445751 26.03788137 33.61376953 29.00634766 C36.14071481 31.34015062 38.70432834 33.59785814 41.3671875 35.7734375 C42.67042969 36.87558594 42.67042969 36.87558594 44 38 C44 38.33 44 38.66 44 39 C29.48 39 14.96 39 0 39 C0 26.13 0 13.26 0 0 Z " fill="#1293CF" transform="translate(387,401)"/>
<path d="M0 0 C2.64 0 5.28 0 8 0 C8 5.94 8 11.88 8 18 C10.31 16.68 12.62 15.36 15 14 C19.68229014 13.12679758 23.87818637 13.62606212 28.375 15.125 C31.57656376 17.41183126 33.61839556 19.3231628 35 23 C35.4932669 27.8008801 35.37568557 32.55544176 35.25 37.375 C35.23195313 38.68339844 35.21390625 39.99179687 35.1953125 41.33984375 C35.14829348 44.56064689 35.08258181 47.77994474 35 51 C32.36 51 29.72 51 27 51 C26.98541748 50.25838623 26.97083496 49.51677246 26.95581055 48.75268555 C26.88140543 45.39709369 26.78471994 42.04250506 26.6875 38.6875 C26.66494141 37.52025391 26.64238281 36.35300781 26.61914062 35.15039062 C26.58369141 34.03212891 26.54824219 32.91386719 26.51171875 31.76171875 C26.48553467 30.73006592 26.45935059 29.69841309 26.43237305 28.63549805 C25.94634432 25.67294575 25.4030668 24.74051526 23 23 C20.6333113 22.4509848 20.6333113 22.4509848 18.0625 22.5 C17.20785156 22.4690625 16.35320313 22.438125 15.47265625 22.40625 C12.86383539 22.84982264 12.86383539 22.84982264 10.73046875 24.79296875 C8.10617819 29.65649596 8.32319014 34.36648794 8.25 39.8125 C8.22035156 40.88693359 8.19070313 41.96136719 8.16015625 43.06835938 C8.08965079 45.71231427 8.03685857 48.3553973 8 51 C5.36 51 2.72 51 0 51 C0 34.17 0 17.34 0 0 Z " fill="#10DEEE" transform="translate(524,647)"/>
<path d="M0 0 C18.21428571 -0.80357143 18.21428571 -0.80357143 22.9375 2.625 C27.06922359 6.66260688 29.1033207 10.59339923 29.5 16.375 C29.31313756 21.40329831 27.51007516 25.39196925 24 29 C18.888775 32.3792587 14.51878006 32.36936705 8.625 32.1875 C4.355625 32.0946875 4.355625 32.0946875 0 32 C0 21.44 0 10.88 0 0 Z " fill="#1C252E" transform="translate(272,658)"/>
<path d="M0 0 C0.66 0 1.32 0 2 0 C2.51046875 1.17755859 2.51046875 1.17755859 3.03125 2.37890625 C8.05320028 13.26425062 13.78827324 18.82155554 25 23 C25 23.66 25 24.32 25 25 C24.21496094 25.3403125 23.42992187 25.680625 22.62109375 26.03125 C11.73574938 31.05320028 6.17844446 36.78827324 2 48 C1.34 48 0.68 48 0 48 C-0.3403125 47.21496094 -0.680625 46.42992187 -1.03125 45.62109375 C-6.05320028 34.73574938 -11.78827324 29.17844446 -23 25 C-23 24.34 -23 23.68 -23 23 C-22.21496094 22.6596875 -21.42992187 22.319375 -20.62109375 21.96875 C-9.73574938 16.94679972 -4.17844446 11.21172676 0 0 Z " fill="#898C90" transform="translate(967,944)"/>
<path d="M0 0 C2.97 0 5.94 0 9 0 C9.33 0.99 9.66 1.98 10 3 C10.598125 2.505 11.19625 2.01 11.8125 1.5 C16.97730183 -0.93049498 22.71805843 -1.1018793 28.1640625 0.7265625 C32.09575866 2.784429 34.10961707 5.06699087 36 9 C36.34057617 12.13793945 36.34057617 12.13793945 36.29296875 15.61328125 C36.2784668 17.4840332 36.2784668 17.4840332 36.26367188 19.39257812 C36.23853516 20.68615234 36.21339844 21.97972656 36.1875 23.3125 C36.16719727 25.28186523 36.16719727 25.28186523 36.14648438 27.29101562 C36.11117443 30.52776077 36.0618528 33.76367105 36 37 C33.36 37 30.72 37 28 37 C27.98598145 35.94087402 27.98598145 35.94087402 27.97167969 34.86035156 C27.91794341 31.65619455 27.83430243 28.45349243 27.75 25.25 C27.73582031 24.13882813 27.72164062 23.02765625 27.70703125 21.8828125 C27.67480469 20.81289063 27.64257812 19.74296875 27.609375 18.640625 C27.58842773 17.65610352 27.56748047 16.67158203 27.54589844 15.65722656 C26.8591642 12.31446472 25.63112759 11.10789894 23 9 C20.79450594 8.33889588 20.79450594 8.33889588 18.5 8.4375 C17.37078125 8.40462891 17.37078125 8.40462891 16.21875 8.37109375 C13.83975666 8.88944713 13.83975666 8.88944713 11.765625 10.796875 C9.08976265 15.65131555 9.32337061 20.35305947 9.25 25.8125 C9.22035156 26.88693359 9.19070313 27.96136719 9.16015625 29.06835938 C9.08965079 31.71231427 9.03685857 34.3553973 9 37 C6.03 37 3.06 37 0 37 C0 24.79 0 12.58 0 0 Z " fill="#EFF1F1" transform="translate(728,661)"/>
<path d="M0 0 C1.16582108 0.00666183 1.16582108 0.00666183 2.35519409 0.01345825 C3.23595612 0.01360931 4.11671814 0.01376038 5.02416992 0.01391602 C6.4523555 0.02939987 6.4523555 0.02939987 7.90939331 0.04519653 C9.37008743 0.04944138 9.37008743 0.04944138 10.86029053 0.05377197 C13.9783443 0.0649899 17.09611349 0.09009734 20.21408081 0.11550903 C22.32475375 0.12553675 24.43543119 0.13466296 26.54611206 0.14285278 C31.72719916 0.16493445 36.90811966 0.19842774 42.08908081 0.24050903 C42.11372719 6.06122526 42.13191511 11.88191138 42.14401245 17.70266724 C42.14905348 19.68444345 42.15588619 21.66621592 42.16452026 23.64797974 C42.17659596 26.49003012 42.18231126 29.33203151 42.18673706 32.17410278 C42.19189835 33.06576645 42.19705963 33.95743011 42.20237732 34.87611389 C42.20257258 36.99791505 42.15118111 39.11961683 42.08908081 41.24050903 C41.08908081 42.24050903 41.08908081 42.24050903 38.65158081 42.42800903 C36.08908081 42.24050903 36.08908081 42.24050903 34.08908081 40.24050903 C33.91419635 37.73232731 33.85724457 35.33335572 33.89376831 32.82644653 C33.89578247 32.17973999 33.89779663 31.53303345 33.89987183 30.86672974 C33.91034056 28.44958408 33.93826321 26.03253948 33.96408081 23.61550903 C34.00533081 18.21175903 34.04658081 12.80800903 34.08908081 7.24050903 C21.87908081 7.24050903 9.66908081 7.24050903 -2.91091919 7.24050903 C-3.24091919 5.59050903 -3.57091919 3.94050903 -3.91091919 2.24050903 C-1.91091919 0.24050903 -1.91091919 0.24050903 0 0 Z " fill="#10EAEB" transform="translate(638.9109191894531,297.7594909667969)"/>
<path d="M0 0 C2.97 0 5.94 0 9 0 C12.81544593 8.27242702 16.43833671 16.61601597 20 25 C23.67173329 17.88365095 27.03989677 10.73540321 30.01953125 3.30078125 C31 1 31 1 32 0 C34.67058851 -0.14115161 37.32432238 -0.04247107 40 0 C38.57412535 4.48591222 36.87371599 8.80140566 34.99609375 13.11328125 C34.71274673 13.76830124 34.42939972 14.42332123 34.13746643 15.09819031 C33.54283172 16.47102564 32.94694256 17.84331824 32.34985352 19.21508789 C31.43330483 21.32214429 30.52207317 23.43144519 29.61132812 25.54101562 C29.03156482 26.87774075 28.45149761 28.21433412 27.87109375 29.55078125 C27.59817001 30.18301102 27.32524628 30.81524078 27.04405212 31.46662903 C25.11504822 35.88495178 25.11504822 35.88495178 24 37 C21.32941149 37.14115161 18.67567762 37.04247107 16 37 C11.95895073 28.42413981 7.98036204 19.82036822 4.0625 11.1875 C3.6610376 10.3099707 3.2595752 9.43244141 2.84594727 8.52832031 C2.28991821 7.29807129 2.28991821 7.29807129 1.72265625 6.04296875 C1.39015869 5.31102295 1.05766113 4.57907715 0.71508789 3.82495117 C0 2 0 2 0 0 Z " fill="#0984D7" transform="translate(354,661)"/>
<path d="M0 0 C2.64 0 5.28 0 8 0 C8 2.64 8 5.28 8 8 C11.3 8 14.6 8 18 8 C18 10.31 18 12.62 18 15 C14.7 15 11.4 15 8 15 C8.33 22.26 8.66 29.52 9 37 C11.97 37 14.94 37 18 37 C18.33 38.98 18.66 40.96 19 43 C15.29137017 45.47241989 12.30094385 45.66668695 8 45 C3.95847733 42.90439565 1.64526524 41.2377183 0 37 C-0.22705078 34.52636719 -0.22705078 34.52636719 -0.1953125 31.796875 C-0.18564453 30.32734375 -0.18564453 30.32734375 -0.17578125 28.828125 C-0.15902344 27.81234375 -0.14226562 26.7965625 -0.125 25.75 C-0.11597656 24.71875 -0.10695313 23.6875 -0.09765625 22.625 C-0.07412011 20.08309713 -0.04124023 17.5416672 0 15 C-2.31 15 -4.62 15 -7 15 C-7 12.69 -7 10.38 -7 8 C-4.69 8 -2.38 8 0 8 C0 5.36 0 2.72 0 0 Z " fill="#0BD8E9" transform="translate(497,654)"/>
<path d="M0 0 C38.61 0 77.22 0 117 0 C117 1.32 117 2.64 117 4 C78.72 4 40.44 4 1 4 C0.67 2.68 0.34 1.36 0 0 Z " fill="#04F0F5" transform="translate(647,712)"/>
<path d="M0 0 C0.99 0.33 1.98 0.66 3 1 C2.67 49.18 2.34 97.36 2 147 C3.98 147 5.96 147 8 147 C8 147.33 8 147.66 8 148 C5.69 148 3.38 148 1 148 C1 148.66 1 149.32 1 150 C0.34 150 -0.32 150 -1 150 C-1.02333501 130.73774043 -1.04098215 111.47548372 -1.05181217 92.21321297 C-1.05697384 83.26990411 -1.0640141 74.32660401 -1.07543945 65.38330078 C-1.08539021 57.59055191 -1.09185437 49.7978094 -1.09408849 42.00505435 C-1.09539493 37.87684714 -1.09847659 33.7486581 -1.10573006 29.6204567 C-1.11249643 25.738174 -1.11461569 21.85591703 -1.11310768 17.973629 C-1.11338373 16.54574189 -1.11538521 15.11785395 -1.11920547 13.68997192 C-1.12415226 11.74637467 -1.12239531 9.80276375 -1.12025452 7.85916138 C-1.12117631 6.76960207 -1.1220981 5.68004276 -1.12304783 4.55746651 C-1 2 -1 2 0 0 Z " fill="#095AD1" transform="translate(369,458)"/>
<path d="M0 0 C0 2.64 0 5.28 0 8 C-0.62648438 8.10957031 -1.25296875 8.21914063 -1.8984375 8.33203125 C-2.71570313 8.49058594 -3.53296875 8.64914062 -4.375 8.8125 C-5.59316406 9.03873047 -5.59316406 9.03873047 -6.8359375 9.26953125 C-9.35820641 9.87544942 -9.35820641 9.87544942 -11 13 C-11.36749389 15.61289494 -11.36749389 15.61289494 -11.4140625 18.54296875 C-11.47207031 20.15268555 -11.47207031 20.15268555 -11.53125 21.79492188 C-11.57765625 23.47424805 -11.57765625 23.47424805 -11.625 25.1875 C-11.68300781 26.88422852 -11.68300781 26.88422852 -11.7421875 28.61523438 C-11.83652533 31.4099925 -11.92211652 34.20474278 -12 37 C-14.97 37 -17.94 37 -21 37 C-21 25.12 -21 13.24 -21 1 C-18.36 1 -15.72 1 -13 1 C-12.67 1.99 -12.34 2.98 -12 4 C-10.700625 3.01 -10.700625 3.01 -9.375 2 C-5.78576537 -0.12695385 -4.07305202 -0.38790972 0 0 Z " fill="#F0F1F2" transform="translate(681,661)"/>
<path d="M0 0 C3.77931616 2.07491867 6.95588415 4.13889228 9 8 C9.6078824 11.99465578 9.17186383 13.69183037 7.1875 17.25 C4.91719941 20.10409217 3.36829679 21.77968103 -0.3046875 22.37109375 C-7.28881062 22.55153462 -7.28881062 22.55153462 -11.0625 19.625 C-14.11858295 15.48450052 -14.71424812 12.09757903 -14 7 C-10.50204098 1.25335305 -6.69562884 -0.80347546 0 0 Z " fill="#242931" transform="translate(348,729)"/>
<path d="M0 0 C13.53846154 0 13.53846154 0 18.875 4.625 C20.65007411 8.37237868 20.79535729 11.94367783 20 16 C17.81840855 18.75569447 16.12822506 20.43588747 13 22 C8.66396021 22.1393329 4.33919329 22.04254111 0 22 C0 14.74 0 7.48 0 0 Z " fill="#232A32" transform="translate(557,729)"/>
<path d="M0 0 C10.7421875 -0.1953125 10.7421875 -0.1953125 14 0 C16 2 16 2 16.125 4.09375 C16.04166667 5.69791667 15.95833333 7.30208333 15.875 8.90625 C15.78090338 11.2233765 15.78090338 11.2233765 18 13 C17.8125 16 17.8125 16 17 19 C13.2632157 21.49118953 11.25548181 21.2065226 6.8125 21.125 C4.564375 21.08375 2.31625 21.0425 0 21 C0 14.07 0 7.14 0 0 Z " fill="#F0F2F2" transform="translate(473,730)"/>
<path d="M0 0 C2.64 0 5.28 0 8 0 C8 11.88 8 23.76 8 36 C5.36 36 2.72 36 0 36 C0 24.12 0 12.24 0 0 Z " fill="#0FDCF0" transform="translate(476,662)"/>
<path d="M0 0 C2 2 2 2 2.3125 5.9375 C2.23081662 8.43791894 2.12109418 9.77205801 0.9375 12 C-2.13215135 13.58433618 -4.61681143 13.36248449 -8 13 C-9.9375 11.625 -9.9375 11.625 -11 10 C-11 9.34 -11 8.68 -11 8 C-12.22630127 8.01047363 -13.45260254 8.02094727 -14.71606445 8.03173828 C-19.26144497 8.06791104 -23.80681273 8.09089057 -28.35229492 8.10986328 C-30.32041564 8.11992707 -32.28852138 8.13357934 -34.2565918 8.15087891 C-37.08385918 8.17511059 -39.91092905 8.18647923 -42.73828125 8.1953125 C-43.61962234 8.20563507 -44.50096344 8.21595764 -45.40901184 8.22659302 C-46.22963608 8.22674408 -47.05026031 8.22689514 -47.89575195 8.22705078 C-48.61745071 8.231492 -49.33914948 8.23593323 -50.0827179 8.24050903 C-52 8 -52 8 -55 6 C-55.33 6.66 -55.66 7.32 -56 8 C-56 7.01 -56 6.02 -56 5 C-41.15 5 -26.3 5 -11 5 C-10.34 3.35 -9.68 1.7 -9 0 C-5.88135455 -1.55932272 -3.33704665 -0.65549131 0 0 Z " fill="#0C6DC8" transform="translate(424,452)"/>
<path d="M0 0 C0 1.98 0 3.96 0 6 C-3.96 7.98 -7.92 9.96 -12 12 C-9.37803569 14.62196431 -7.5047228 15.97572835 -4.3125 17.6875 C-3.50425781 18.12449219 -2.69601562 18.56148438 -1.86328125 19.01171875 C-1.24839844 19.33785156 -0.63351562 19.66398437 0 20 C0 22.31 0 24.62 0 27 C-2.5221286 25.75256064 -5.04270078 24.50212931 -7.5625 23.25 C-8.26697266 22.90195312 -8.97144531 22.55390625 -9.69726562 22.1953125 C-14.22551026 19.94162392 -18.6309758 17.54907588 -23 15 C-23 13.35 -23 11.7 -23 10 C-21.80761719 9.44570313 -20.61523438 8.89140625 -19.38671875 8.3203125 C-17.8202527 7.58866968 -16.25384974 6.85689179 -14.6875 6.125 C-13.90181641 5.76019531 -13.11613281 5.39539063 -12.30664062 5.01953125 C-11.54931641 4.66503906 -10.79199219 4.31054688 -10.01171875 3.9453125 C-8.96697388 3.45828857 -8.96697388 3.45828857 -7.90112305 2.96142578 C-2.04520061 0 -2.04520061 0 0 0 Z " fill="#F3F3F0" transform="translate(466,445)"/>
<path d="M0 0 C1.98 0 3.96 0 6 0 C3.61267992 7.92236589 0.27495907 15.3567587 -3.15283203 22.86865234 C-4.13447503 25.02077273 -5.10872807 27.17612812 -6.08203125 29.33203125 C-6.7027002 30.70071355 -7.32377871 32.06921021 -7.9453125 33.4375 C-8.23697296 34.08219238 -8.52863342 34.72688477 -8.82913208 35.39111328 C-10.88392764 39.88392764 -10.88392764 39.88392764 -12 41 C-13.99958364 41.04080783 -16.00045254 41.04254356 -18 41 C-15.54655449 32.88340427 -12.0468555 25.33798991 -8.4375 17.6875 C-7.84135614 16.41361762 -7.24564997 15.13953031 -6.65039062 13.86523438 C-2.13193418 4.20969365 -2.13193418 4.20969365 0 0 Z " fill="#F2F1EE" transform="translate(489,437)"/>
<path d="M0 0 C2.375 1.625 2.375 1.625 4 4 C4.5 7 4.5 7 4 10 C2.3125 12.3125 2.3125 12.3125 0 14 C-0.80091064 14.11206787 -1.60182129 14.22413574 -2.42700195 14.33959961 C-5.77337051 15.1984977 -6.53485909 16.44440812 -8.48046875 19.25390625 C-9.08697266 20.10791016 -9.69347656 20.96191406 -10.31835938 21.84179688 C-11.24358398 23.18854492 -11.24358398 23.18854492 -12.1875 24.5625 C-13.42531399 26.33860439 -14.66851888 28.1109681 -15.91796875 29.87890625 C-16.46219482 30.6685376 -17.0064209 31.45816895 -17.56713867 32.27172852 C-18.03998291 32.84205811 -18.51282715 33.4123877 -19 34 C-19.66 34 -20.32 34 -21 34 C-21.73046875 32.3046875 -21.73046875 32.3046875 -22 30 C-20.48828125 27.6328125 -20.48828125 27.6328125 -18.3125 25.125 C-17.57644531 24.24070312 -16.84039063 23.35640625 -16.08203125 22.4453125 C-15.39496094 21.63835937 -14.70789063 20.83140625 -14 20 C-9.95362444 15.14434933 -9.86493344 12.32439203 -10.1015625 6.28125 C-10 4 -10 4 -8.375 1.375 C-5.27095134 -0.42208081 -3.53343747 -0.58890625 0 0 Z " fill="#17D6D8" transform="translate(595,314)"/>
<path d="M0 0 C1.85253906 0.20678711 1.85253906 0.20678711 4 1 C5.28027344 3.04125977 5.28027344 3.04125977 6.359375 5.69140625 C6.75253906 6.63564453 7.14570312 7.57988281 7.55078125 8.55273438 C7.94652344 9.54595703 8.34226562 10.53917969 8.75 11.5625 C9.16121094 12.55958984 9.57242188 13.55667969 9.99609375 14.58398438 C11.0111278 17.05075317 12.01163793 19.5224509 13 22 C12.01 22 11.02 22 10 22 C9.80664062 21.35546875 9.61328125 20.7109375 9.4140625 20.046875 C8.11291753 17.65648799 8.11291753 17.65648799 4.9609375 17.390625 C3.18589844 17.32101562 3.18589844 17.32101562 1.375 17.25 C0.18648437 17.19328125 -1.00203125 17.1365625 -2.2265625 17.078125 C-3.59941406 17.03945313 -3.59941406 17.03945313 -5 17 C-5.33 18.65 -5.66 20.3 -6 22 C-6.99 22 -7.98 22 -9 22 C-6.66062389 14.33204498 -3.45231194 7.22862726 0 0 Z " fill="#C7C9CA" transform="translate(631,729)"/>
<path d="M0 0 C3 1 3 1 4.16674805 2.82592773 C4.52808838 3.60395752 4.88942871 4.3819873 5.26171875 5.18359375 C5.85629883 6.45106445 5.85629883 6.45106445 6.46289062 7.74414062 C6.86701172 8.63294922 7.27113281 9.52175781 7.6875 10.4375 C8.10322266 11.32244141 8.51894531 12.20738281 8.94726562 13.11914062 C12 19.70081589 12 19.70081589 12 22 C11.01 22 10.02 22 9 22 C8.34 20.68 7.68 19.36 7 18 C3.04 18 -0.92 18 -5 18 C-5.66 19.32 -6.32 20.64 -7 22 C-7.99 21.67 -8.98 21.34 -10 21 C-8.52452278 17.68584432 -7.04400419 14.37396536 -5.5625 11.0625 C-5.14162109 10.11697266 -4.72074219 9.17144531 -4.28710938 8.19726562 C-3.88427734 7.29814453 -3.48144531 6.39902344 -3.06640625 5.47265625 C-2.69459229 4.64000244 -2.32277832 3.80734863 -1.93969727 2.94946289 C-1 1 -1 1 0 0 Z " fill="#EBECED" transform="translate(392,729)"/>
<path d="M0 0 C15.51 0 31.02 0 47 0 C47.495 1.485 47.495 1.485 48 3 C44.30423095 3.85453433 40.8979539 4.12178203 37.1081543 4.11352539 C35.94732834 4.11344986 34.78650238 4.11337433 33.59049988 4.11329651 C32.34762711 4.10813522 31.10475433 4.10297394 29.82421875 4.09765625 C28.54392288 4.0962413 27.26362701 4.09482635 25.9445343 4.09336853 C22.5530296 4.08956397 19.16156823 4.07975143 15.77008057 4.06866455 C12.30440863 4.05840597 8.83872964 4.05386141 5.37304688 4.04882812 C-1.41798748 4.03780755 -8.20898981 4.0210757 -15 4 C-15 3.67 -15 3.34 -15 3 C-6.585 2.505 -6.585 2.505 2 2 C1.34 1.34 0.68 0.68 0 0 Z " fill="#06D5EB" transform="translate(539,712)"/>
<path d="M0 0 C0.99 0 1.98 0 3 0 C3 7.26 3 14.52 3 22 C-1.5 20.875 -1.5 20.875 -3.796875 17.83984375 C-4.28027344 17.21142578 -4.76367188 16.58300781 -5.26171875 15.93554688 C-5.75285156 15.27619141 -6.24398438 14.61683594 -6.75 13.9375 C-7.25660156 13.27427734 -7.76320313 12.61105469 -8.28515625 11.92773438 C-9.53251886 10.2920419 -10.76747818 8.64690416 -12 7 C-12.33 11.95 -12.66 16.9 -13 22 C-13.99 22 -14.98 22 -16 22 C-16 15.07 -16 8.14 -16 1 C-11.25639189 2.18590203 -9.70148511 4.28490649 -6.8125 7.9375 C-6.36197266 8.48857422 -5.91144531 9.03964844 -5.44726562 9.60742188 C-2.18150685 13.6369863 -2.18150685 13.6369863 -1 16 C-0.67 10.72 -0.34 5.44 0 0 Z " fill="#CBCECE" transform="translate(324,729)"/>
<path d="M0 0 C13.53846154 0 13.53846154 0 18.875 4.625 C20.65007411 8.37237868 20.79535729 11.94367783 20 16 C17.81840855 18.75569447 16.12822506 20.43588747 13 22 C8.66396021 22.1393329 4.33919329 22.04254111 0 22 C0 14.74 0 7.48 0 0 Z M3 3 C3 8.61 3 14.22 3 20 C10.53387496 20.3605634 10.53387496 20.3605634 16 17 C18.34549674 13.48175489 18.57991403 12.14224306 18 8 C16.2539921 4.91911456 16.2539921 4.91911456 13 3 C9.55181651 2.58411222 6.49485035 2.76700998 3 3 Z " fill="#D8DBDC" transform="translate(557,729)"/>
<path d="M0 0 C4.40120114 2.20060057 6.42428498 4.78071329 9.25 8.625 C9.70890625 9.23601563 10.1678125 9.84703125 10.640625 10.4765625 C11.76751252 11.9790792 12.88472437 13.48884409 14 15 C14.33 10.38 14.66 5.76 15 1 C15.99 0.67 16.98 0.34 18 0 C18 7.26 18 14.52 18 22 C13.09150605 20.77287651 11.60083621 18.43681956 8.75 14.5625 C8.29109375 13.96373047 7.8321875 13.36496094 7.359375 12.74804688 C4 8.28387742 4 8.28387742 4 6 C3.34 6 2.68 6 2 6 C2 11.28 2 16.56 2 22 C1.34 22 0.68 22 0 22 C0 14.74 0 7.48 0 0 Z " fill="#EAEBEC" transform="translate(281,729)"/>
<path d="M0 0 C0.66 0 1.32 0 2 0 C2 7.26 2 14.52 2 22 C-1 22 -1 22 -2.3503418 20.74658203 C-2.79547119 20.17278809 -3.24060059 19.59899414 -3.69921875 19.0078125 C-4.18583984 18.38519531 -4.67246094 17.76257813 -5.17382812 17.12109375 C-5.67333984 16.46238281 -6.17285156 15.80367187 -6.6875 15.125 C-7.19861328 14.47402344 -7.70972656 13.82304688 -8.23632812 13.15234375 C-12 8.27816255 -12 8.27816255 -12 6 C-12.66 6 -13.32 6 -14 6 C-14 11.28 -14 16.56 -14 22 C-14.66 22 -15.32 22 -16 22 C-16 15.07 -16 8.14 -16 1 C-11.05459381 2.23635155 -9.59228369 4.64196624 -6.75 8.5625 C-6.29109375 9.17802734 -5.8321875 9.79355469 -5.359375 10.42773438 C-4.23028585 11.94494792 -3.11388857 13.47159183 -2 15 C-1.93941406 14.00097656 -1.87882813 13.00195312 -1.81640625 11.97265625 C-1.73261719 10.68230469 -1.64882813 9.39195312 -1.5625 8.0625 C-1.48128906 6.77472656 -1.40007813 5.48695313 -1.31640625 4.16015625 C-1 1 -1 1 0 0 Z " fill="#C3C4C5" transform="translate(692,729)"/>
<path d="M0 0 C3.77931616 2.07491867 6.95588415 4.13889228 9 8 C9.6078824 11.99465578 9.17186383 13.69183037 7.1875 17.25 C4.91719941 20.10409217 3.36829679 21.77968103 -0.3046875 22.37109375 C-7.28881062 22.55153462 -7.28881062 22.55153462 -11.0625 19.625 C-14.11858295 15.48450052 -14.71424812 12.09757903 -14 7 C-10.50204098 1.25335305 -6.69562884 -0.80347546 0 0 Z M-9.5 4.4375 C-11.73570183 8.25682396 -11.76004105 11.68518361 -11 16 C-9.68620182 18.73061576 -9.68620182 18.73061576 -7 20 C-4.21696243 20.54177985 -1.77873129 20.581993 1 20 C4.34425629 17.42749516 5.81699852 15.37251107 6.375 11.1875 C6.23726945 7.85940634 6.23726945 7.85940634 4 5.125 C-0.5243545 1.9202489 -4.4857596 1.55431177 -9.5 4.4375 Z " fill="#D5D6D7" transform="translate(348,729)"/>
<path d="M0 0 C47.19 0 94.38 0 143 0 C143 0.33 143 0.66 143 1 C97.46 1 51.92 1 5 1 C4.67 2.32 4.34 3.64 4 5 C2.68 3.35 1.36 1.7 0 0 Z " fill="#16ADB8" transform="translate(355,325)"/>
<path d="M0 0 C3.5386994 1.65139305 4.81070153 2.71605229 7 6 C7 6.99 7 7.98 7 9 C0.07 9 -6.86 9 -14 9 C-11.07063937 1.67659843 -8.03454372 -1.00431797 0 0 Z " fill="#1F2C37" transform="translate(337,668)"/>
<path d="M0 0 C1.17949219 0.01804687 2.35898437 0.03609375 3.57421875 0.0546875 C4.92966797 0.08949219 4.92966797 0.08949219 6.3125 0.125 C6.14229357 4.55036728 5.9561908 6.51196114 2.6875 9.625 C-1.36302428 11.42523301 -3.44858672 11.26624588 -7.6875 10.125 C-9.6875 8.125 -9.6875 8.125 -10 5.125 C-9.896875 4.135 -9.79375 3.145 -9.6875 2.125 C-6.05554504 -0.29630331 -4.30400652 -0.08522785 0 0 Z " fill="#2E353D" transform="translate(634.6875,681.875)"/>
<path d="M0 0 C4.95 0 9.9 0 15 0 C15 0.66 15 1.32 15 2 C11.04 2 7.08 2 3 2 C3 4.31 3 6.62 3 9 C6.63 9 10.26 9 14 9 C14 9.99 14 10.98 14 12 C10.37 12 6.74 12 3 12 C3 14.31 3 16.62 3 19 C6.96 19 10.92 19 15 19 C15 19.66 15 20.32 15 21 C10.05 21 5.1 21 0 21 C0 14.07 0 7.14 0 0 Z " fill="#DBDDDD" transform="translate(429,730)"/>
<path d="M0 0 C1.27617188 0.02320313 2.55234375 0.04640625 3.8671875 0.0703125 C5.78917969 0.09738281 5.78917969 0.09738281 7.75 0.125 C9.23113281 0.15980469 9.23113281 0.15980469 10.7421875 0.1953125 C10.93095189 3.81837097 10.94128822 4.90629532 8.8046875 8.0078125 C5.16941367 10.60443667 3.16633403 10.7232872 -1.171875 10.6640625 C-3.73361966 10.08838954 -4.69879576 9.28569829 -6.2578125 7.1953125 C-5.91297142 2.48248445 -4.99467754 0.2994411 0 0 Z " fill="#2F363D" transform="translate(699.2578125,681.8046875)"/>
<path d="M0 0 C0.99 0 1.98 0 3 0 C3.04898438 1.20398438 3.09796875 2.40796875 3.1484375 3.6484375 C3.22346343 5.22398198 3.29901133 6.79950166 3.375 8.375 C3.4059375 9.1690625 3.436875 9.963125 3.46875 10.78125 C3.51816421 15.36667375 3.51816421 15.36667375 6 19 C8.64 19 11.28 19 14 19 C14.495 10.09 14.495 10.09 15 1 C15.99 1 16.98 1 18 1 C18.13559675 3.56428515 18.23433188 6.12135216 18.3125 8.6875 C18.35439453 9.40873047 18.39628906 10.12996094 18.43945312 10.87304688 C18.53409566 15.01838969 18.33190604 16.56222738 15.734375 19.98828125 C11.66105796 22.98507878 9.9509464 22.62869161 5 22 C1.76386646 20.25746655 1.17604685 19.52814056 0 16 C-0.07051114 13.26134713 -0.09357765 10.54972412 -0.0625 7.8125 C-0.05798828 7.06291016 -0.05347656 6.31332031 -0.04882812 5.54101562 C-0.03706354 3.69397617 -0.01912865 1.84697787 0 0 Z " fill="#D6D8D7" transform="translate(649,729)"/>
<path d="M0 0 C3.4375 0.75 3.4375 0.75 5.4375 2.75 C5.98989643 9.71019496 5.98989643 9.71019496 4.375 12.75 C1.41662322 14.27690415 -1.29966599 13.93468872 -4.5625 13.75 C-3.9025 12.76 -3.2425 11.77 -2.5625 10.75 C-3.2225 10.09 -3.8825 9.43 -4.5625 8.75 C-5.28177295 6.43234271 -5.9534893 4.09904126 -6.5625 1.75 C-3.5625 -0.25 -3.5625 -0.25 0 0 Z " fill="#1678B9" transform="translate(420.5625,451.25)"/>
<path d="M0 0 C0.66 0 1.32 0 2 0 C2.04898437 1.04800781 2.09796875 2.09601562 2.1484375 3.17578125 C2.22348143 4.55471354 2.29902857 5.9336185 2.375 7.3125 C2.4059375 8.00279297 2.436875 8.69308594 2.46875 9.40429688 C2.68124919 13.06990789 2.91933861 14.87900792 5 18 C8.5 18.41666667 8.5 18.41666667 12 18 C14.93447357 15.06552643 14.46158423 11.81740544 14.625 7.875 C14.68300781 6.74384766 14.68300781 6.74384766 14.7421875 5.58984375 C14.83651031 3.72696816 14.91934662 1.86351745 15 0 C15.99 0 16.98 0 18 0 C18.08139142 2.39652528 18.14067009 4.79025436 18.1875 7.1875 C18.21263672 7.86103516 18.23777344 8.53457031 18.26367188 9.22851562 C18.32907182 13.69751197 17.75630065 16.45618488 15 20 C12.71273777 21.14363112 11.17147573 21.26501932 8.625 21.375 C7.46871094 21.44847656 7.46871094 21.44847656 6.2890625 21.5234375 C4 21 4 21 1.7265625 18.99609375 C-0.54579338 15.05288796 -0.45694007 12.14069119 -0.25 7.6875 C-0.23195313 6.94693359 -0.21390625 6.20636719 -0.1953125 5.44335938 C-0.14847337 3.6283429 -0.07673789 1.81399834 0 0 Z " fill="#F5F5F5" transform="translate(498,730)"/>
<path d="M0 0 C2.9375 1.375 2.9375 1.375 5 3 C5 3.66 5 4.32 5 5 C4.505 4.835 4.01 4.67 3.5 4.5 C-1.1987168 3.56025664 -5.36304742 2.93598082 -9.5 5.625 C-11.48198314 8.76313998 -11.67064058 10.34873465 -11 14 C-9 17 -9 17 -6 19 C-2.15197802 19.48100275 1.24263267 18.88408643 5 18 C5 18.66 5 19.32 5 20 C0.69321224 22.44148966 -3.13610811 22.72828328 -8 22 C-10.87029869 20.20606332 -12.49131638 19.01736724 -14 16 C-14.53118173 12.20584481 -14.85089348 8.53668822 -12.953125 5.109375 C-8.88435681 0.17898531 -6.2728048 -0.4252749 0 0 Z " fill="#E9E9E9" transform="translate(716,729)"/>
<path d="M0 0 C1.796875 0.0703125 1.796875 0.0703125 4 1 C5.29263816 3.31844734 6.29169071 5.4254441 7.25 7.875 C7.518125 8.51308594 7.78625 9.15117188 8.0625 9.80859375 C9.24194665 12.69101695 10 14.85851645 10 18 C10.66 18 11.32 18 12 18 C12.17015625 17.443125 12.3403125 16.88625 12.515625 16.3125 C14.23315937 10.90409391 16.35342255 6.01937104 19 1 C19.66 1 20.32 1 21 1 C18.72564796 8.18216433 15.96415819 15.0758202 13 22 C11.68 22 10.36 22 9 22 C7.49394598 18.71106997 5.99619468 15.41842554 4.5 12.125 C4.07074219 11.18785156 3.64148438 10.25070312 3.19921875 9.28515625 C2.79316406 8.38925781 2.38710938 7.49335937 1.96875 6.5703125 C1.59169922 5.74289551 1.21464844 4.91547852 0.82617188 4.06298828 C0 2 0 2 0 0 Z " fill="#E7E7E6" transform="translate(360,729)"/>
<path d="M0 0 C0.66 0 1.32 0 2 0 C2 2.97 2 5.94 2 9 C6.62 9 11.24 9 16 9 C16 6.03 16 3.06 16 0 C16.66 0 17.32 0 18 0 C18 6.93 18 13.86 18 21 C17.34 21 16.68 21 16 21 C16 17.7 16 14.4 16 11 C11.38 11 6.76 11 2 11 C2 14.3 2 17.6 2 21 C1.34 21 0.68 21 0 21 C0 14.07 0 7.14 0 0 Z " fill="#F6F7F7" transform="translate(728,730)"/>
<path d="M0 0 C6.78384798 -0.64608076 6.78384798 -0.64608076 10 1.0625 C11.60856522 4.17909511 11.42213381 6.56262469 11 10 C9.375 12.4375 9.375 12.4375 7 14 C3.75 14.25 3.75 14.25 1 14 C1.99 13.34 2.98 12.68 4 12 C3.505 11.608125 3.01 11.21625 2.5 10.8125 C1 9 1 9 0.6875 6.4375 C1 4 1 4 3 2 C1.35 2.33 -0.3 2.66 -2 3 C-1.34 2.01 -0.68 1.02 0 0 Z " fill="#0B5BC1" transform="translate(426,600)"/>
<path d="M0 0 C0.66 0.33 1.32 0.66 2 1 C0.95016316 3.26118705 0.02303691 4.97525665 -1.6875 6.8125 C-3.6506604 10.084434 -2.74545333 12.33485446 -2 16 C-1.66666667 18.33333333 -1.33333333 20.66666667 -1 23 C-1.99 23.66 -2.98 24.32 -4 25 C-4.74230743 22.81761616 -5.47177315 20.63389797 -6.171875 18.4375 C-7.03187209 15.77244873 -7.03187209 15.77244873 -8.625 12.4375 C-9 9 -9 9 -7.6328125 6.82421875 C-3.13043478 1.56521739 -3.13043478 1.56521739 0 0 Z " fill="#0ED5DD" transform="translate(633,394)"/>
<path d="M0 0 C1.79133978 -0.05391993 3.58313899 -0.09275571 5.375 -0.125 C6.37273437 -0.14820313 7.37046875 -0.17140625 8.3984375 -0.1953125 C11 0 11 0 13 2 C12.44444444 6.55555556 12.44444444 6.55555556 11 8 C9.14712498 8.07226502 7.29166122 8.0838122 5.4375 8.0625 C4.42558594 8.05347656 3.41367187 8.04445313 2.37109375 8.03515625 C1.58863281 8.02355469 0.80617188 8.01195312 0 8 C0 5.36 0 2.72 0 0 Z " fill="#31383F" transform="translate(475,741)"/>
<path d="M0 0 C5.61 0 11.22 0 17 0 C17 0.99 17 1.98 17 3 C14.36 3 11.72 3 9 3 C9 9.27 9 15.54 9 22 C8.34 22 7.68 22 7 22 C7 15.73 7 9.46 7 3 C4.36 3 1.72 3 -1 3 C-0.67 2.01 -0.34 1.02 0 0 Z " fill="#DDDFDF" transform="translate(406,729)"/>
<path d="M0 0 C0.99 0 1.98 0 3 0 C3 6.6 3 13.2 3 20 C6.63 20 10.26 20 14 20 C14 20.66 14 21.32 14 22 C9.38 22 4.76 22 0 22 C0 14.74 0 7.48 0 0 Z " fill="#D5D8DA" transform="translate(537,729)"/>
<path d="M0 0 C3 0.25 3 0.25 5 2.25 C5.25 5.25 5.25 5.25 5 8.25 C3 10.25 3 10.25 0 10.5 C-3 10.25 -3 10.25 -5 8.25 C-5.25 5.25 -5.25 5.25 -5 2.25 C-3 0.25 -3 0.25 0 0 Z " fill="#10D9EA" transform="translate(480,644.75)"/>
<path d="M0 0 C1.62463842 -0.05395478 3.24978541 -0.09277195 4.875 -0.125 C5.77992188 -0.14820313 6.68484375 -0.17140625 7.6171875 -0.1953125 C10 0 10 0 12 2 C11.46428571 5.53571429 11.46428571 5.53571429 10 7 C8.31391034 7.07205511 6.62499341 7.08386068 4.9375 7.0625 C4.01839844 7.05347656 3.09929687 7.04445313 2.15234375 7.03515625 C1.44207031 7.02355469 0.73179687 7.01195312 0 7 C0 4.69 0 2.38 0 0 Z " fill="#2B3138" transform="translate(475,732)"/>
<path d="M0 0 C0.66 0 1.32 0 2 0 C2 7.26 2 14.52 2 22 C0.68 21.67 -0.64 21.34 -2 21 C-3.25 18.4375 -3.25 18.4375 -4 16 C-3.01 16 -2.02 16 -1 16 C-1.01160156 14.92878906 -1.02320313 13.85757813 -1.03515625 12.75390625 C-1.04453299 11.35677257 -1.05363331 9.95963701 -1.0625 8.5625 C-1.07506836 7.50192383 -1.07506836 7.50192383 -1.08789062 6.41992188 C-1.09653588 4.61306441 -1.05220011 2.80612397 -1 1 C-0.67 0.67 -0.34 0.34 0 0 Z " fill="#D5D8D9" transform="translate(297,729)"/>
<path d="M0 0 C1.17755859 -0.00773438 1.17755859 -0.00773438 2.37890625 -0.015625 C4.4375 0.25 4.4375 0.25 6.4375 2.25 C6.57636885 4.57605322 6.43332776 6.8303156 6.3125 9.15625 C6.21840338 11.4733765 6.21840338 11.4733765 8.4375 13.25 C8.1875 16.3125 8.1875 16.3125 7.4375 19.25 C6.7775 19.58 6.1175 19.91 5.4375 20.25 C4.7775 19.59 4.1175 18.93 3.4375 18.25 C3.6025 17.486875 3.7675 16.72375 3.9375 15.9375 C4.5454034 12.67001921 3.67483567 11.2660057 2.4375 8.25 C2.875 6 2.875 6 3.4375 4.25 C1.77407163 2.58657163 -0.3450709 2.88951903 -2.625 2.6875 C-4.00365234 2.56181641 -4.00365234 2.56181641 -5.41015625 2.43359375 C-6.47556641 2.34271484 -6.47556641 2.34271484 -7.5625 2.25 C-4.42838698 0.16059132 -3.58799528 -0.02364412 0 0 Z " fill="#D4D6D7" transform="translate(482.5625,729.75)"/>
<path d="M0 0 C2.69155497 2.0859551 4.70693788 3.75335882 5.5078125 7.16015625 C5.72101768 11.41715296 5.3858677 13.4552456 2.875 17 C-1.36390545 19.94880379 -4.31462973 20.21847392 -9.375 19.5625 C-10.24125 19.376875 -11.1075 19.19125 -12 19 C-12 18.67 -12 18.34 -12 18 C-10.86111328 17.85304688 -10.86111328 17.85304688 -9.69921875 17.703125 C-8.70535156 17.55359375 -7.71148438 17.4040625 -6.6875 17.25 C-5.70136719 17.11078125 -4.71523438 16.9715625 -3.69921875 16.828125 C-0.48557985 15.84217501 0.40104273 14.91257873 2 12 C2.28157309 8.55072966 2.09682402 6.29047207 1 3 C0.34 2.67 -0.32 2.34 -1 2 C-0.67 1.34 -0.34 0.68 0 0 Z " fill="#E0E2E3" transform="translate(572,731)"/>
<path d="M0 0 C0.66 0 1.32 0 2 0 C2 6.27 2 12.54 2 19 C5.96 19 9.92 19 14 19 C14 19.66 14 20.32 14 21 C9.38 21 4.76 21 0 21 C0 14.07 0 7.14 0 0 Z " fill="#F3F4F4" transform="translate(605,730)"/>
<path d="M0 0 C0.99 0 1.98 0 3 0 C3 6.93 3 13.86 3 21 C2.01 21 1.02 21 0 21 C0 14.07 0 7.14 0 0 Z " fill="#CDCFD2" transform="translate(269,730)"/>
<path d="M0 0 C2.06907895 3.40789474 2.06907895 3.40789474 1.78125 5.875 C0.79684565 8.55257983 -0.63969679 10.1523965 -2.5625 12.25 C-3.20316406 12.95640625 -3.84382812 13.6628125 -4.50390625 14.390625 C-5.24447266 15.18726563 -5.24447266 15.18726563 -6 16 C-7.32 15.34 -8.64 14.68 -10 14 C-9.06558465 12.72689688 -8.12732889 11.456612 -7.1875 10.1875 C-6.66542969 9.47980469 -6.14335938 8.77210938 -5.60546875 8.04296875 C-4 6 -4 6 -2.36328125 4.42578125 C-0.73973309 2.93097126 -0.73973309 2.93097126 0 0 Z " fill="#11C0CC" transform="translate(627,414)"/>
<path d="M0 0 C16.83 0 33.66 0 51 0 C51 0.33 51 0.66 51 1 C35.82 1 20.64 1 5 1 C4.67 2.32 4.34 3.64 4 5 C2.68 3.35 1.36 1.7 0 0 Z " fill="#169BB5" transform="translate(355,325)"/>
<path d="M0 0 C2.2386565 2.2386565 2.8996395 4.06570533 4 7 C4.33 7.66 4.66 8.32 5 9 C3.68 9.33 2.36 9.66 1 10 C0.34 8.68 -0.32 7.36 -1 6 C-2.15628906 6.05220703 -2.15628906 6.05220703 -3.3359375 6.10546875 C-4.33882813 6.13253906 -5.34171875 6.15960938 -6.375 6.1875 C-7.87160156 6.23970703 -7.87160156 6.23970703 -9.3984375 6.29296875 C-10.25695312 6.19628906 -11.11546875 6.09960938 -12 6 C-12.66 5.01 -13.32 4.02 -14 3 C-9.71 3 -5.42 3 -1 3 C-0.67 2.01 -0.34 1.02 0 0 Z " fill="#0E7FD0" transform="translate(414,454)"/>
<path d="M0 0 C0.66 0 1.32 0 2 0 C1.42732628 4.10416164 0.5731146 7.0672135 -1 11 C2.63 11 6.26 11 10 11 C10 11.33 10 11.66 10 12 C4.06 12.495 4.06 12.495 -2 13 C-2.66 14.65 -3.32 16.3 -4 18 C-4.99 18 -5.98 18 -7 18 C-5.06375702 11.79522136 -2.74390859 5.89174281 0 0 Z " fill="#E5E6E6" transform="translate(629,733)"/>
<path d="M0 0 C1.32 0.33 2.64 0.66 4 1 C5.25 3.5625 5.25 3.5625 6 6 C4.68 5.67 3.36 5.34 2 5 C2 10.28 2 15.56 2 21 C1.34 21 0.68 21 0 21 C0 14.07 0 7.14 0 0 Z " fill="#F4F5F5" transform="translate(676,730)"/>
<path d="M0 0 C3.34905453 3.34905453 3.89470285 5.49378854 5 10 C2.03 10 -0.94 10 -4 10 C-2.68 6.7 -1.36 3.4 0 0 Z " fill="#2B3037" transform="translate(632,733)"/>
<path d="M0 0 C0.66 0 1.32 0 2 0 C3.32 3.3 4.64 6.6 6 10 C3.03 10 0.06 10 -3 10 C-2.39009109 6.44219804 -1.4216319 3.3171411 0 0 Z " fill="#252C31" transform="translate(392,733)"/>
<path d="M0 0 C0.99 0 1.98 0 3 0 C3.0809723 2.43816585 3.14046972 4.87364384 3.1875 7.3125 C3.22520508 8.34793945 3.22520508 8.34793945 3.26367188 9.40429688 C3.29296875 11.42578125 3.29296875 11.42578125 3 15 C2.01 15.99 1.02 16.98 0 18 C0 12.06 0 6.12 0 0 Z " fill="#D5D7D7" transform="translate(513,730)"/>
<path d="M0 0 C2.125 0.375 2.125 0.375 4 1 C2.63629701 3.99220268 1.05091917 6.29026529 -1.125 8.75 C-1.93324219 9.67039062 -1.93324219 9.67039062 -2.7578125 10.609375 C-3.16773438 11.06828125 -3.57765625 11.5271875 -4 12 C-4.66 11.01 -5.32 10.02 -6 9 C-2.25 2.25 -2.25 2.25 0 0 Z " fill="#18DCE0" transform="translate(652,369)"/>
<path d="M0 0 C0.66 0 1.32 0 2 0 C2 7.26 2 14.52 2 22 C1.01 22 0.02 22 -1 22 C-1.33 21.01 -1.66 20.02 -2 19 C-1.67 18.67 -1.34 18.34 -1 18 C-0.84417697 16.65984779 -0.74955858 15.31241097 -0.68359375 13.96484375 C-0.62075195 12.75151367 -0.62075195 12.75151367 -0.55664062 11.51367188 C-0.51732422 10.66353516 -0.47800781 9.81339844 -0.4375 8.9375 C-0.39431641 8.08349609 -0.35113281 7.22949219 -0.30664062 6.34960938 C-0.20023298 4.23327963 -0.09958269 2.11666187 0 0 Z " fill="#E6E6E5" transform="translate(692,729)"/>
<path d="M0 0 C3.96 0 7.92 0 12 0 C16 6.75 16 6.75 16 9 C15.01 9 14.02 9 13 9 C12.79632813 8.35546875 12.59265625 7.7109375 12.3828125 7.046875 C11.1332065 4.68846128 11.1332065 4.68846128 8.1796875 4.390625 C7.08914063 4.34421875 5.99859375 4.2978125 4.875 4.25 C3.23144531 4.16492188 3.23144531 4.16492188 1.5546875 4.078125 C0.71164062 4.05234375 -0.13140625 4.0265625 -1 4 C-0.67 2.68 -0.34 1.36 0 0 Z " fill="#C0C3C4" transform="translate(388,742)"/>
<path d="M0 0 C3 1 3 1 4.38671875 3.50390625 C4.81597656 4.51324219 5.24523437 5.52257812 5.6875 6.5625 C6.34298828 8.08037109 6.34298828 8.08037109 7.01171875 9.62890625 C7.33785156 10.41136719 7.66398437 11.19382812 8 12 C7.01 12.33 6.02 12.66 5 13 C2 7.375 2 7.375 2 4 C1.34 4 0.68 4 0 4 C-0.33 4.99 -0.66 5.98 -1 7 C-1.625 5.1875 -1.625 5.1875 -2 3 C-1.34 2.01 -0.68 1.02 0 0 Z " fill="#D4D6D6" transform="translate(392,729)"/>
<path d="M0 0 C1.67542976 0.28604898 3.34385343 0.61781233 5 1 C5.625 2.875 5.625 2.875 6 5 C5.34 5.66 4.68 6.32 4 7 C1.375 6.625 1.375 6.625 -1 6 C-1.042721 4.33388095 -1.04063832 2.66617115 -1 1 C-0.67 0.67 -0.34 0.34 0 0 Z " fill="#1E3043" transform="translate(428,603)"/>
<path d="M0 0 C0.33 0.66 0.66 1.32 1 2 C-2.60974447 7.96392565 -7.27956824 12.89628532 -12 18 C-12.66 17.67 -13.32 17.34 -14 17 C-13.15695312 16.02417969 -12.31390625 15.04835938 -11.4453125 14.04296875 C-10.33845436 12.75788769 -9.23168833 11.4727273 -8.125 10.1875 C-7.56941406 9.54490234 -7.01382813 8.90230469 -6.44140625 8.24023438 C-5.90644531 7.61826172 -5.37148438 6.99628906 -4.8203125 6.35546875 C-4.32805176 5.78465576 -3.83579102 5.21384277 -3.32861328 4.62573242 C-1.81383993 2.8258536 -1.81383993 2.8258536 0 0 Z " fill="#263D43" transform="translate(648,380)"/>
<path d="M0 0 C1.67542976 0.28604898 3.34385343 0.61781233 5 1 C5 2.65 5 4.3 5 6 C2.625 6.625 2.625 6.625 0 7 C-0.66 6.34 -1.32 5.68 -2 5 C-1.46428571 1.46428571 -1.46428571 1.46428571 0 0 Z " fill="#2A3E44" transform="translate(590,318)"/>
<path d="M0 0 C1.23732894 1.85599341 2.45089946 3.72837606 3.625 5.625 C6.98279614 8.98279614 9.33378798 8.7666894 14 9 C14 9.66 14 10.32 14 11 C9.15564006 11.47493725 6.0436741 11.72418203 1.9375 8.875 C-0.28517401 5.57683856 -0.45291114 3.89503578 0 0 Z " fill="#E3E5E5" transform="translate(335,740)"/>
<path d="M0 0 C1.67542976 0.28604898 3.34385343 0.61781233 5 1 C4.67 2.65 4.34 4.3 4 6 C2.125 6.625 2.125 6.625 0 7 C-0.66 6.34 -1.32 5.68 -2 5 C-1.46428571 1.46428571 -1.46428571 1.46428571 0 0 Z " fill="#2F3635" transform="translate(418,455)"/>
<path d="M0 0 C2.9375 1.375 2.9375 1.375 5 3 C5 3.66 5 4.32 5 5 C4.15695312 4.75443359 4.15695312 4.75443359 3.296875 4.50390625 C0.86940944 3.97135003 -1.26889681 3.90101319 -3.75 3.9375 C-4.94882812 3.95103516 -4.94882812 3.95103516 -6.171875 3.96484375 C-7.07679688 3.98224609 -7.07679688 3.98224609 -8 4 C-8.33 3.01 -8.66 2.02 -9 1 C-5.93570224 -0.53214888 -3.3834358 -0.22938548 0 0 Z " fill="#C7C9C9" transform="translate(716,729)"/>
<path d="M0 0 C1.17755859 -0.00773438 1.17755859 -0.00773438 2.37890625 -0.015625 C4.4375 0.25 4.4375 0.25 6.4375 2.25 C6.5625 5.375 6.5625 5.375 6.4375 8.25 C4.4375 7.25 4.4375 7.25 3.6328125 5.234375 C2.60004757 2.99452661 2.60004757 2.99452661 0.0546875 2.640625 C-1.30269531 2.57101562 -1.30269531 2.57101562 -2.6875 2.5 C-3.59757812 2.44328125 -4.50765625 2.3865625 -5.4453125 2.328125 C-6.14398438 2.30234375 -6.84265625 2.2765625 -7.5625 2.25 C-4.42838698 0.16059132 -3.58799528 -0.02364412 0 0 Z " fill="#DDDEDF" transform="translate(482.5625,729.75)"/>
<path d="M0 0 C1.12380503 3.37141509 0.98197462 4.64492003 0 8 C-1.4375 10.3125 -1.4375 10.3125 -3 12 C-3.66 12 -4.32 12 -5 12 C-5.68359375 10.265625 -5.68359375 10.265625 -6 8 C-4.78515625 5.859375 -4.78515625 5.859375 -3.0625 3.75 C-2.49660156 3.04359375 -1.93070313 2.3371875 -1.34765625 1.609375 C-0.90292969 1.07828125 -0.45820312 0.5471875 0 0 Z " fill="#19CAD0" transform="translate(579,336)"/>
<path d="M0 0 C0.33 0 0.66 0 1 0 C1.50338797 5.28557366 0.34676996 7.90950339 -3 12 C-5.25 13.375 -5.25 13.375 -7 14 C-7 13.01 -7 12.02 -7 11 C-6.54625 10.566875 -6.0925 10.13375 -5.625 9.6875 C-3.43116626 7.40928804 -2.95170433 4.9820069 -2 2 C-1.34 1.34 -0.68 0.68 0 0 Z " fill="#D1D2D2" transform="translate(356,737)"/>
<path d="M0 0 C0.66 0 1.32 0 2 0 C3.7265625 1.96875 3.7265625 1.96875 5.625 4.5 C6.25664062 5.3353125 6.88828125 6.170625 7.5390625 7.03125 C8.02117187 7.6809375 8.50328125 8.330625 9 9 C8.67 9.66 8.34 10.32 8 11 C3.78926767 9.49616703 2.16762883 6.79335044 0 3 C0 2.01 0 1.02 0 0 Z " fill="#E0E1E1" transform="translate(313,734)"/>
<path d="M0 0 C-0.4640625 0.84498047 -0.4640625 0.84498047 -0.9375 1.70703125 C-2.35001185 4.75535645 -2.83479755 7.78626162 -3.4375 11.07421875 C-3.623125 11.70972656 -3.80875 12.34523438 -4 13 C-4.99 13.495 -4.99 13.495 -6 14 C-6.62572422 6.02201622 -6.62572422 6.02201622 -4.125 1.9375 C-2 0 -2 0 0 0 Z " fill="#EFEEEF" transform="translate(708,731)"/>
<path d="M0 0 C1.74965358 -0.05429959 3.49979787 -0.09292823 5.25 -0.125 C6.22453125 -0.14820313 7.1990625 -0.17140625 8.203125 -0.1953125 C11.0196498 0.00137219 12.60949036 0.55431084 15 2 C15 2.66 15 3.32 15 4 C13.06166004 3.91284983 11.1242571 3.80467036 9.1875 3.6875 C8.10855469 3.62949219 7.02960937 3.57148437 5.91796875 3.51171875 C2.82502483 2.96931493 1.86977097 2.44710376 0 0 Z " fill="#BFC2C3" transform="translate(557,729)"/>
<path d="M0 0 C0.66 0.99 1.32 1.98 2 3 C-1.20380017 5.13586678 -2.01939967 5.23132175 -5.6875 5.125 C-6.89986328 5.09792969 -6.89986328 5.09792969 -8.13671875 5.0703125 C-9.05904297 5.03550781 -9.05904297 5.03550781 -10 5 C-10 4.34 -10 3.68 -10 3 C-8.72125 2.87625 -7.4425 2.7525 -6.125 2.625 C-2.65209064 2.30957601 -2.65209064 2.30957601 0 0 Z " fill="#E6E7E6" transform="translate(512,746)"/>
<path d="M0 0 C0.33 0 0.66 0 1 0 C1 6.93 1 13.86 1 21 C0.01 20.67 -0.98 20.34 -2 20 C-1.505 18.515 -1.505 18.515 -1 17 C-0.85596652 15.66636297 -0.75409577 14.32781954 -0.68359375 12.98828125 C-0.64169922 12.23095703 -0.59980469 11.47363281 -0.55664062 10.69335938 C-0.51732422 9.90767578 -0.47800781 9.12199219 -0.4375 8.3125 C-0.39431641 7.51521484 -0.35113281 6.71792969 -0.30664062 5.89648438 C-0.20072632 3.93118553 -0.09987449 1.96561504 0 0 Z " fill="#FCFCFC" transform="translate(325,730)"/>
<path d="M0 0 C2.62901288 1.52206009 4.84365964 2.84365964 7 5 C7.125 8.625 7.125 8.625 7 12 C5.77503707 10.1625556 4.59564016 8.29237027 3.5 6.375 C2.21973738 3.8942773 2.21973738 3.8942773 0 3 C0 2.01 0 1.02 0 0 Z " fill="#EAEAE8" transform="translate(349,730)"/>
<path d="M0 0 C1.32 0.33 2.64 0.66 4 1 C3.34 1.66 2.68 2.32 2 3 C1.63168919 4.93257855 1.63168919 4.93257855 1.5859375 7.1328125 C1.54726563 7.93847656 1.50859375 8.74414062 1.46875 9.57421875 C1.4378125 10.41597656 1.406875 11.25773438 1.375 12.125 C1.33632813 12.97449219 1.29765625 13.82398438 1.2578125 14.69921875 C1.16343506 16.79911684 1.08062414 18.89952891 1 21 C0.67 21 0.34 21 0 21 C0 14.07 0 7.14 0 0 Z " fill="#E8EAE9" transform="translate(676,730)"/>
<path d="M0 0 C2 1.125 2 1.125 4 3 C4.25 6.1875 4.25 6.1875 4 9 C3.01 9.495 3.01 9.495 2 10 C-1.125 3.375 -1.125 3.375 0 0 Z " fill="#1ADBDE" transform="translate(595,315)"/>
<path d="M0 0 C2.62187494 1.04874998 3.79371361 1.64931313 5.25 4.125 C5.4975 4.74375 5.745 5.3625 6 6 C4.35 6 2.7 6 1 6 C0.67 6.66 0.34 7.32 0 8 C0 5.36 0 2.72 0 0 Z " fill="#E4E6E7" transform="translate(281,729)"/>
<path d="M0 0 C1.32 0.33 2.64 0.66 4 1 C4.66 3.31 5.32 5.62 6 8 C5.01 8 4.02 8 3 8 C0 2.25 0 2.25 0 0 Z " fill="#D0D0CF" transform="translate(360,729)"/>
<path d="M0 0 C4.6875 3.61328125 4.6875 3.61328125 6 5 C6 5.99 6 6.98 6 8 C3.08482708 6.92598892 1.22189824 6.22189824 -1 4 C-0.625 1.875 -0.625 1.875 0 0 Z " fill="#D9DADA" transform="translate(704,743)"/>
<path d="M0 0 C0.33 0.66 0.66 1.32 1 2 C1.99 2.33 2.98 2.66 4 3 C2.68 4.32 1.36 5.64 0 7 C-1.32 6.34 -2.64 5.68 -4 5 C-2.68 3.35 -1.36 1.7 0 0 Z " fill="#15C3CD" transform="translate(635,389)"/>
<path d="M0 0 C1.1875 1.5625 1.1875 1.5625 2 4 C0.625 7.75 0.625 7.75 -1 11 C-1.99 9.68 -2.98 8.36 -4 7 C-3.34 7 -2.68 7 -2 7 C-1.34 4.69 -0.68 2.38 0 0 Z " fill="#D9DAD8" transform="translate(374,740)"/>
<path d="M0 0 C1.98 0.66 3.96 1.32 6 2 C4.35 3.65 2.7 5.3 1 7 C0.67 4.69 0.34 2.38 0 0 Z " fill="#28404D" transform="translate(608,429)"/>
<path d="M0 0 C0.33 0 0.66 0 1 0 C1.17942163 3.94727588 1.09350689 6.5980513 -1 10 C-1.99 9.67 -2.98 9.34 -4 9 C-2.68 6.03 -1.36 3.06 0 0 Z " fill="#DFE0DF" transform="translate(386,741)"/>
<path d="M0 0 C1.32 0.33 2.64 0.66 4 1 C3.67 1.99 3.34 2.98 3 4 C-0.5625 5.1875 -0.5625 5.1875 -4 6 C-2.68 4.02 -1.36 2.04 0 0 Z " fill="#1CC9D0" transform="translate(652,369)"/>
<path d="M0 0 C0.33 0.66 0.66 1.32 1 2 C-1.31 4.64 -3.62 7.28 -6 10 C-6.66 9.67 -7.32 9.34 -8 9 C-5.36 6.03 -2.72 3.06 0 0 Z " fill="#27373E" transform="translate(571,365)"/>
<path d="M0 0 C0.99 0.99 1.98 1.98 3 3 C2.67 3.33 2.34 3.66 2 4 C1.76572222 6.01594582 1.58663876 8.038474 1.4375 10.0625 C1.35371094 11.16722656 1.26992188 12.27195312 1.18359375 13.41015625 C1.12300781 14.26480469 1.06242187 15.11945312 1 16 C0.67 16 0.34 16 0 16 C0 10.72 0 5.44 0 0 Z " fill="#353C41" transform="translate(311,735)"/>
<path d="M0 0 C0.66 0 1.32 0 2 0 C2 0.99 2 1.98 2 3 C2.94875 3.309375 3.8975 3.61875 4.875 3.9375 C8 5 8 5 10 6 C9.67 6.66 9.34 7.32 9 8 C6.03 6.35 3.06 4.7 0 3 C0 2.01 0 1.02 0 0 Z " fill="#686141" transform="translate(454,456)"/>
<path d="M0 0 C1.42944945 2.35438733 2.08661261 3.48032433 1.625 6.25 C1.41875 6.8275 1.2125 7.405 1 8 C0.67 7.34 0.34 6.68 0 6 C-1.32 6.33 -2.64 6.66 -4 7 C-2.68 4.69 -1.36 2.38 0 0 Z " fill="#10BCC7" transform="translate(627,414)"/>
<path d="M0 0 C2 3 2 3 3 6 C1.35 6.66 -0.3 7.32 -2 8 C-2 4.79604584 -1.25664978 2.90600261 0 0 Z " fill="#19C7CF" transform="translate(595,320)"/>
<path d="M0 0 C1.98 0 3.96 0 6 0 C6 0.99 6 1.98 6 3 C4.35 3.66 2.7 4.32 1 5 C0.67 3.35 0.34 1.7 0 0 Z " fill="#18DAE0" transform="translate(587,325)"/>
<path d="M0 0 C1.65 1.65 3.3 3.3 5 5 C4.01 5.66 3.02 6.32 2 7 C0.68 5.02 -0.64 3.04 -2 1 C-1.34 0.67 -0.68 0.34 0 0 Z " fill="#D9DBDB" transform="translate(682,735)"/>
<path d="M0 0 C1.98 0.495 1.98 0.495 4 1 C2.25 4.875 2.25 4.875 0 6 C-1.125 2.25 -1.125 2.25 0 0 Z " fill="#D1D2D2" transform="translate(631,729)"/>
<path d="M0 0 C1.65 0 3.3 0 5 0 C5 0.99 5 1.98 5 3 C4 4 4 4 0.9375 4.0625 C-0.5165625 4.0315625 -0.5165625 4.0315625 -2 4 C-1.01 3.34 -0.02 2.68 1 2 C0.67 1.34 0.34 0.68 0 0 Z " fill="#0E56B7" transform="translate(429,610)"/>
<path d="M0 0 C1.65 1.65 3.3 3.3 5 5 C4.0925 4.79375 3.185 4.5875 2.25 4.375 C-1.11027897 3.9872755 -2.24075815 4.19588033 -5 6 C-3.35 4.02 -1.7 2.04 0 0 Z " fill="#138FC9" transform="translate(543,516)"/>
<path d="M0 0 C1.2065625 0.0309375 1.2065625 0.0309375 2.4375 0.0625 C1.7775 1.3825 1.1175 2.7025 0.4375 4.0625 C-0.5525 4.0625 -1.5425 4.0625 -2.5625 4.0625 C-2.8925 3.0725 -3.2225 2.0825 -3.5625 1.0625 C-2.5625 0.0625 -2.5625 0.0625 0 0 Z " fill="#137ABE" transform="translate(417.5625,451.9375)"/>
<path d="M0 0 C-0.3125 1.875 -0.3125 1.875 -1 4 C-1.99 4.66 -2.98 5.32 -4 6 C-4 5.34 -4 4.68 -4 4 C-4.66 3.67 -5.32 3.34 -6 3 C-2.25 0 -2.25 0 0 0 Z " fill="#0ECBD6" transform="translate(627,420)"/>
<path d="M0 0 C1.5625 1.75 1.5625 1.75 3 4 C2.6875 6.25 2.6875 6.25 2 8 C1.01 7.67 0.02 7.34 -1 7 C-0.67 4.69 -0.34 2.38 0 0 Z " fill="#0BE2E8" transform="translate(627,403)"/>
<path d="M0 0 C0.99 1.32 1.98 2.64 3 4 C0.64046906 6.35953094 -0.77895617 6.49141413 -4 7 C-2.68 4.69 -1.36 2.38 0 0 Z " fill="#18C7CC" transform="translate(586,326)"/>
<path d="M0 0 C0.66 1.32 1.32 2.64 2 4 C1.01 5.32 0.02 6.64 -1 8 C-1.93065133 5.39417629 -2.14917407 4.35801776 -1.0625 1.75 C-0.711875 1.1725 -0.36125 0.595 0 0 Z " fill="#253842" transform="translate(432,664)"/>
</svg>
